G04 #@! TF.FileFunction,Soldermask,Top*
%FSLAX46Y46*%
G04 Gerber Fmt 4.6, Leading zero omitted, Abs format (unit mm)*
G04 Created by KiCad (PCBNEW 4.0.2-stable) date 6/13/2016 12:08:56 PM*
%MOMM*%
G01*
G04 APERTURE LIST*
%ADD10C,0.100000*%
%ADD11R,1.000000X2.400000*%
%ADD12R,1.198880X1.198880*%
%ADD13R,0.599440X1.000760*%
%ADD14R,1.300000X1.500000*%
%ADD15R,1.300000X1.400000*%
%ADD16R,1.200000X1.400000*%
G04 APERTURE END LIST*
D10*
D11*
X323110860Y-81267300D03*
X320410860Y-81267300D03*
D12*
X335315560Y-79962500D03*
X335315560Y-82712500D03*
X62163960Y-79886300D03*
X62163960Y-82636300D03*
D13*
X100490020Y-80304640D03*
X101790500Y-80304640D03*
X101140260Y-82204560D03*
X139567920Y-80304640D03*
X140868400Y-80304640D03*
X140218160Y-82204560D03*
X255430020Y-80355440D03*
X256730500Y-80355440D03*
X256080260Y-82255360D03*
X178455320Y-80304640D03*
X179755800Y-80304640D03*
X179105560Y-82204560D03*
X293618920Y-80304640D03*
X294919400Y-80304640D03*
X294269160Y-82204560D03*
X330804520Y-80291940D03*
X332105000Y-80291940D03*
X331454760Y-82191860D03*
D11*
X329653880Y-81109820D03*
X326953880Y-81109820D03*
X317327260Y-81280000D03*
X314627260Y-81280000D03*
X311269360Y-81254600D03*
X308569360Y-81254600D03*
X305356260Y-81267300D03*
X302656260Y-81267300D03*
X298831000Y-81399380D03*
X296131000Y-81399380D03*
X292376840Y-81028540D03*
X289676840Y-81028540D03*
X285678860Y-81267300D03*
X282978860Y-81267300D03*
X279638760Y-81280000D03*
X276938760Y-81280000D03*
X273436060Y-81267300D03*
X270736060Y-81267300D03*
X267340060Y-81216500D03*
X264640060Y-81216500D03*
X254165080Y-80906620D03*
X251465080Y-80906620D03*
X247528060Y-81292700D03*
X244828060Y-81292700D03*
X241005360Y-81280000D03*
X238305360Y-81280000D03*
X234701060Y-81216500D03*
X232001060Y-81216500D03*
X228719360Y-81254600D03*
X226019360Y-81254600D03*
X222158560Y-81292700D03*
X219458560Y-81292700D03*
X215625660Y-81089500D03*
X212925660Y-81089500D03*
X208950560Y-81267300D03*
X206250560Y-81267300D03*
X202803760Y-81292700D03*
X200103760Y-81292700D03*
X196428360Y-81229200D03*
X193728360Y-81229200D03*
X190325898Y-81267300D03*
X187625898Y-81267300D03*
X183738520Y-81368900D03*
X181038520Y-81368900D03*
X177208160Y-81165700D03*
X174508160Y-81165700D03*
X170507660Y-81280000D03*
X167807660Y-81280000D03*
X164139860Y-81267300D03*
X161439860Y-81267300D03*
X157777160Y-81267300D03*
X155077160Y-81267300D03*
X151541460Y-81280000D03*
X148841460Y-81280000D03*
X144823160Y-81280000D03*
X142123160Y-81280000D03*
X138308060Y-81191100D03*
X135608060Y-81191100D03*
X131653260Y-81267300D03*
X128953260Y-81267300D03*
X125150860Y-81280000D03*
X122450860Y-81280000D03*
X118826260Y-81280000D03*
X116126260Y-81280000D03*
X112438160Y-81267300D03*
X109738160Y-81267300D03*
X105780820Y-81318100D03*
X103080820Y-81318100D03*
X99245420Y-81196180D03*
X96545420Y-81196180D03*
X92504260Y-81280000D03*
X89804260Y-81280000D03*
X86568260Y-81292700D03*
X83868260Y-81292700D03*
X80261460Y-81280000D03*
X77561460Y-81280000D03*
X74063860Y-81280000D03*
X71363860Y-81280000D03*
X67802760Y-81267300D03*
X65102760Y-81267300D03*
X260728440Y-81313020D03*
X258028440Y-81313020D03*
D13*
X216872820Y-80330040D03*
X218173300Y-80330040D03*
X217523060Y-82229960D03*
D14*
X210919060Y-79536300D03*
D15*
X210919060Y-82236300D03*
D14*
X94447360Y-79561700D03*
D15*
X94447360Y-82261700D03*
D14*
X107782360Y-82934800D03*
D15*
X107782360Y-80234800D03*
D14*
X146834860Y-82922100D03*
D15*
X146834860Y-80222100D03*
D14*
X262671560Y-82934800D03*
D15*
X262671560Y-80234800D03*
D14*
X185671460Y-82934800D03*
D15*
X185671460Y-80234800D03*
D14*
X300746160Y-82934800D03*
D15*
X300746160Y-80234800D03*
D14*
X333397860Y-82922100D03*
D15*
X333397860Y-80222100D03*
D14*
X133626860Y-79549000D03*
D15*
X133626860Y-82249000D03*
D14*
X224063560Y-82934800D03*
D15*
X224063560Y-80234800D03*
D14*
X249463560Y-79536300D03*
D15*
X249463560Y-82236300D03*
D14*
X172476160Y-79552800D03*
D15*
X172476160Y-82252800D03*
D14*
X287639760Y-79561700D03*
D16*
X287639760Y-82261700D03*
D14*
X324977760Y-79552800D03*
D15*
X324977760Y-82252800D03*
M02*
