<?xml version="1.0" standalone="no"?>
 <!DOCTYPE svg PUBLIC "-//W3C//DTD SVG 1.1//EN" 
 "http://www.w3.org/Graphics/SVG/1.1/DTD/svg11.dtd"> 
<svg xmlns="http://www.w3.org/2000/svg" version="1.1" 
    width="41.9989cm" height="29.7002cm" viewBox="0 0 165350 116930 ">
<title>SVG Picture created as thanhledduong-F.Cu.svg date 2016/06/13 12:02:05 </title>
  <desc>Picture generated by PCBNEW </desc>
<g style="fill:#000000; fill-opacity:1;stroke:#000000; stroke-opacity:1;
stroke-linecap:round; stroke-linejoin:round; "
 transform="translate(0 0) scale(1 1)">
</g>
<g style="fill:#000000; fill-opacity:0.0; 
stroke:#000000; stroke-width:-0.000393701; stroke-opacity:1; 
stroke-linecap:round; stroke-linejoin:round;">
</g>
<g style="fill:#000000; fill-opacity:0.0; 
stroke:#000000; stroke-width:39.3701; stroke-opacity:1; 
stroke-linecap:round; stroke-linejoin:round;">
</g>
<g style="fill:#000000; fill-opacity:0.0; 
stroke:#000000; stroke-width:59.0551; stroke-opacity:1; 
stroke-linecap:round; stroke-linejoin:round;">
<rect x="118106" y="99607.2" width="42519.7" height="12598.4" rx="0" />
</g>
<g style="fill:#000000; fill-opacity:0.0; 
stroke:#000000; stroke-width:39.3701; stroke-opacity:1; 
stroke-linecap:round; stroke-linejoin:round;">
</g>
<g style="fill:#000000; fill-opacity:0.0; 
stroke:#000000; stroke-width:59.0551; stroke-opacity:1; 
stroke-linecap:round; stroke-linejoin:round;">
<rect x="3937.01" y="3937.01" width="157476" height="109056" rx="0" />
</g>
<g style="fill:#000000; fill-opacity:0.0; 
stroke:#000000; stroke-width:39.3701; stroke-opacity:1; 
stroke-linecap:round; stroke-linejoin:round;">
</g>
<g style="fill:#000000; fill-opacity:0.0; 
stroke:#000000; stroke-width:59.0551; stroke-opacity:1; 
stroke-linecap:round; stroke-linejoin:round;">
<rect x="4724.41" y="4724.41" width="155901" height="107481" rx="0" />
</g>
<g style="fill:#000000; fill-opacity:0.0; 
stroke:#000000; stroke-width:39.3701; stroke-opacity:1; 
stroke-linecap:round; stroke-linejoin:round;">
</g>
<g style="fill:#000000; fill-opacity:0.0; 
stroke:#000000; stroke-width:59.0551; stroke-opacity:1; 
stroke-linecap:round; stroke-linejoin:round;">
<path d="M23622 4724
L23622 3937
" />
</g>
<g style="fill:#000000; fill-opacity:0.0; 
stroke:#000000; stroke-width:39.3701; stroke-opacity:1; 
stroke-linecap:round; stroke-linejoin:round;">
</g>
<g style="fill:#000000; fill-opacity:0.0; 
stroke:#000000; stroke-width:59.0551; stroke-opacity:1; 
stroke-linecap:round; stroke-linejoin:round;">
<path d="M43307 4724
L43307 3937
" />
</g>
<g style="fill:#000000; fill-opacity:0.0; 
stroke:#000000; stroke-width:39.3701; stroke-opacity:1; 
stroke-linecap:round; stroke-linejoin:round;">
</g>
<g style="fill:#000000; fill-opacity:0.0; 
stroke:#000000; stroke-width:59.0551; stroke-opacity:1; 
stroke-linecap:round; stroke-linejoin:round;">
<path d="M62992 4724
L62992 3937
" />
</g>
<g style="fill:#000000; fill-opacity:0.0; 
stroke:#000000; stroke-width:39.3701; stroke-opacity:1; 
stroke-linecap:round; stroke-linejoin:round;">
</g>
<g style="fill:#000000; fill-opacity:0.0; 
stroke:#000000; stroke-width:59.0551; stroke-opacity:1; 
stroke-linecap:round; stroke-linejoin:round;">
<path d="M82677 4724
L82677 3937
" />
</g>
<g style="fill:#000000; fill-opacity:0.0; 
stroke:#000000; stroke-width:39.3701; stroke-opacity:1; 
stroke-linecap:round; stroke-linejoin:round;">
</g>
<g style="fill:#000000; fill-opacity:0.0; 
stroke:#000000; stroke-width:59.0551; stroke-opacity:1; 
stroke-linecap:round; stroke-linejoin:round;">
<path d="M102362 4724
L102362 3937
" />
</g>
<g style="fill:#000000; fill-opacity:0.0; 
stroke:#000000; stroke-width:39.3701; stroke-opacity:1; 
stroke-linecap:round; stroke-linejoin:round;">
</g>
<g style="fill:#000000; fill-opacity:0.0; 
stroke:#000000; stroke-width:59.0551; stroke-opacity:1; 
stroke-linecap:round; stroke-linejoin:round;">
<path d="M122047 4724
L122047 3937
" />
</g>
<g style="fill:#000000; fill-opacity:0.0; 
stroke:#000000; stroke-width:39.3701; stroke-opacity:1; 
stroke-linecap:round; stroke-linejoin:round;">
</g>
<g style="fill:#000000; fill-opacity:0.0; 
stroke:#000000; stroke-width:59.0551; stroke-opacity:1; 
stroke-linecap:round; stroke-linejoin:round;">
<path d="M141732 4724
L141732 3937
" />
</g>
<g style="fill:#000000; fill-opacity:0.0; 
stroke:#000000; stroke-width:39.3701; stroke-opacity:1; 
stroke-linecap:round; stroke-linejoin:round;">
</g>
<g style="fill:#000000; fill-opacity:0.0; 
stroke:#000000; stroke-width:59.0551; stroke-opacity:1; 
stroke-linecap:round; stroke-linejoin:round;">
<path d="M14169 4562
L13877 4562
" />
<path d="M14023 4562
L14023 4050
L13974 4123
L13925 4172
L13877 4196
" />
</g>
<g style="fill:#000000; fill-opacity:0.0; 
stroke:#000000; stroke-width:39.3701; stroke-opacity:1; 
stroke-linecap:round; stroke-linejoin:round;">
</g>
<g style="fill:#000000; fill-opacity:0.0; 
stroke:#000000; stroke-width:59.0551; stroke-opacity:1; 
stroke-linecap:round; stroke-linejoin:round;">
<path d="M33562 4099
L33586 4074
L33635 4050
L33757 4050
L33805 4074
L33830 4099
L33854 4147
L33854 4196
L33830 4269
L33537 4562
L33854 4562
" />
</g>
<g style="fill:#000000; fill-opacity:0.0; 
stroke:#000000; stroke-width:39.3701; stroke-opacity:1; 
stroke-linecap:round; stroke-linejoin:round;">
</g>
<g style="fill:#000000; fill-opacity:0.0; 
stroke:#000000; stroke-width:59.0551; stroke-opacity:1; 
stroke-linecap:round; stroke-linejoin:round;">
<path d="M53222 4050
L53539 4050
L53368 4245
L53442 4245
L53490 4269
L53515 4294
L53539 4342
L53539 4464
L53515 4513
L53490 4537
L53442 4562
L53295 4562
L53247 4537
L53222 4513
" />
</g>
<g style="fill:#000000; fill-opacity:0.0; 
stroke:#000000; stroke-width:39.3701; stroke-opacity:1; 
stroke-linecap:round; stroke-linejoin:round;">
</g>
<g style="fill:#000000; fill-opacity:0.0; 
stroke:#000000; stroke-width:59.0551; stroke-opacity:1; 
stroke-linecap:round; stroke-linejoin:round;">
<path d="M73175 4221
L73175 4562
" />
<path d="M73053 4026
L72932 4391
L73248 4391
" />
</g>
<g style="fill:#000000; fill-opacity:0.0; 
stroke:#000000; stroke-width:39.3701; stroke-opacity:1; 
stroke-linecap:round; stroke-linejoin:round;">
</g>
<g style="fill:#000000; fill-opacity:0.0; 
stroke:#000000; stroke-width:59.0551; stroke-opacity:1; 
stroke-linecap:round; stroke-linejoin:round;">
<path d="M92885 4050
L92641 4050
L92617 4294
L92641 4269
L92690 4245
L92812 4245
L92860 4269
L92885 4294
L92909 4342
L92909 4464
L92885 4513
L92860 4537
L92812 4562
L92690 4562
L92641 4537
L92617 4513
" />
</g>
<g style="fill:#000000; fill-opacity:0.0; 
stroke:#000000; stroke-width:39.3701; stroke-opacity:1; 
stroke-linecap:round; stroke-linejoin:round;">
</g>
<g style="fill:#000000; fill-opacity:0.0; 
stroke:#000000; stroke-width:59.0551; stroke-opacity:1; 
stroke-linecap:round; stroke-linejoin:round;">
<path d="M112545 4050
L112448 4050
L112399 4074
L112375 4099
L112326 4172
L112302 4269
L112302 4464
L112326 4513
L112350 4537
L112399 4562
L112497 4562
L112545 4537
L112570 4513
L112594 4464
L112594 4342
L112570 4294
L112545 4269
L112497 4245
L112399 4245
L112350 4269
L112326 4294
L112302 4342
" />
</g>
<g style="fill:#000000; fill-opacity:0.0; 
stroke:#000000; stroke-width:39.3701; stroke-opacity:1; 
stroke-linecap:round; stroke-linejoin:round;">
</g>
<g style="fill:#000000; fill-opacity:0.0; 
stroke:#000000; stroke-width:59.0551; stroke-opacity:1; 
stroke-linecap:round; stroke-linejoin:round;">
<path d="M131962 4050
L132304 4050
L132084 4562
" />
</g>
<g style="fill:#000000; fill-opacity:0.0; 
stroke:#000000; stroke-width:39.3701; stroke-opacity:1; 
stroke-linecap:round; stroke-linejoin:round;">
</g>
<g style="fill:#000000; fill-opacity:0.0; 
stroke:#000000; stroke-width:59.0551; stroke-opacity:1; 
stroke-linecap:round; stroke-linejoin:round;">
<path d="M151769 4269
L151721 4245
L151696 4221
L151672 4172
L151672 4147
L151696 4099
L151721 4074
L151769 4050
L151867 4050
L151916 4074
L151940 4099
L151964 4147
L151964 4172
L151940 4221
L151916 4245
L151867 4269
L151769 4269
L151721 4294
L151696 4318
L151672 4367
L151672 4464
L151696 4513
L151721 4537
L151769 4562
L151867 4562
L151916 4537
L151940 4513
L151964 4464
L151964 4367
L151940 4318
L151916 4294
L151867 4269
" />
</g>
<g style="fill:#000000; fill-opacity:0.0; 
stroke:#000000; stroke-width:39.3701; stroke-opacity:1; 
stroke-linecap:round; stroke-linejoin:round;">
</g>
<g style="fill:#000000; fill-opacity:0.0; 
stroke:#000000; stroke-width:59.0551; stroke-opacity:1; 
stroke-linecap:round; stroke-linejoin:round;">
<path d="M23622 112205
L23622 112992
" />
</g>
<g style="fill:#000000; fill-opacity:0.0; 
stroke:#000000; stroke-width:39.3701; stroke-opacity:1; 
stroke-linecap:round; stroke-linejoin:round;">
</g>
<g style="fill:#000000; fill-opacity:0.0; 
stroke:#000000; stroke-width:59.0551; stroke-opacity:1; 
stroke-linecap:round; stroke-linejoin:round;">
<path d="M43307 112205
L43307 112992
" />
</g>
<g style="fill:#000000; fill-opacity:0.0; 
stroke:#000000; stroke-width:39.3701; stroke-opacity:1; 
stroke-linecap:round; stroke-linejoin:round;">
</g>
<g style="fill:#000000; fill-opacity:0.0; 
stroke:#000000; stroke-width:59.0551; stroke-opacity:1; 
stroke-linecap:round; stroke-linejoin:round;">
<path d="M62992 112205
L62992 112992
" />
</g>
<g style="fill:#000000; fill-opacity:0.0; 
stroke:#000000; stroke-width:39.3701; stroke-opacity:1; 
stroke-linecap:round; stroke-linejoin:round;">
</g>
<g style="fill:#000000; fill-opacity:0.0; 
stroke:#000000; stroke-width:59.0551; stroke-opacity:1; 
stroke-linecap:round; stroke-linejoin:round;">
<path d="M82677 112205
L82677 112992
" />
</g>
<g style="fill:#000000; fill-opacity:0.0; 
stroke:#000000; stroke-width:39.3701; stroke-opacity:1; 
stroke-linecap:round; stroke-linejoin:round;">
</g>
<g style="fill:#000000; fill-opacity:0.0; 
stroke:#000000; stroke-width:59.0551; stroke-opacity:1; 
stroke-linecap:round; stroke-linejoin:round;">
<path d="M102362 112205
L102362 112992
" />
</g>
<g style="fill:#000000; fill-opacity:0.0; 
stroke:#000000; stroke-width:39.3701; stroke-opacity:1; 
stroke-linecap:round; stroke-linejoin:round;">
</g>
<g style="fill:#000000; fill-opacity:0.0; 
stroke:#000000; stroke-width:59.0551; stroke-opacity:1; 
stroke-linecap:round; stroke-linejoin:round;">
<path d="M122047 112205
L122047 112992
" />
</g>
<g style="fill:#000000; fill-opacity:0.0; 
stroke:#000000; stroke-width:39.3701; stroke-opacity:1; 
stroke-linecap:round; stroke-linejoin:round;">
</g>
<g style="fill:#000000; fill-opacity:0.0; 
stroke:#000000; stroke-width:59.0551; stroke-opacity:1; 
stroke-linecap:round; stroke-linejoin:round;">
<path d="M141732 112205
L141732 112992
" />
</g>
<g style="fill:#000000; fill-opacity:0.0; 
stroke:#000000; stroke-width:39.3701; stroke-opacity:1; 
stroke-linecap:round; stroke-linejoin:round;">
</g>
<g style="fill:#000000; fill-opacity:0.0; 
stroke:#000000; stroke-width:59.0551; stroke-opacity:1; 
stroke-linecap:round; stroke-linejoin:round;">
<path d="M14169 112830
L13877 112830
" />
<path d="M14023 112830
L14023 112319
L13974 112392
L13925 112440
L13877 112465
" />
</g>
<g style="fill:#000000; fill-opacity:0.0; 
stroke:#000000; stroke-width:39.3701; stroke-opacity:1; 
stroke-linecap:round; stroke-linejoin:round;">
</g>
<g style="fill:#000000; fill-opacity:0.0; 
stroke:#000000; stroke-width:59.0551; stroke-opacity:1; 
stroke-linecap:round; stroke-linejoin:round;">
<path d="M33562 112367
L33586 112343
L33635 112319
L33757 112319
L33805 112343
L33830 112367
L33854 112416
L33854 112465
L33830 112538
L33537 112830
L33854 112830
" />
</g>
<g style="fill:#000000; fill-opacity:0.0; 
stroke:#000000; stroke-width:39.3701; stroke-opacity:1; 
stroke-linecap:round; stroke-linejoin:round;">
</g>
<g style="fill:#000000; fill-opacity:0.0; 
stroke:#000000; stroke-width:59.0551; stroke-opacity:1; 
stroke-linecap:round; stroke-linejoin:round;">
<path d="M53222 112319
L53539 112319
L53368 112513
L53442 112513
L53490 112538
L53515 112562
L53539 112611
L53539 112733
L53515 112782
L53490 112806
L53442 112830
L53295 112830
L53247 112806
L53222 112782
" />
</g>
<g style="fill:#000000; fill-opacity:0.0; 
stroke:#000000; stroke-width:39.3701; stroke-opacity:1; 
stroke-linecap:round; stroke-linejoin:round;">
</g>
<g style="fill:#000000; fill-opacity:0.0; 
stroke:#000000; stroke-width:59.0551; stroke-opacity:1; 
stroke-linecap:round; stroke-linejoin:round;">
<path d="M73175 112489
L73175 112830
" />
<path d="M73053 112294
L72932 112660
L73248 112660
" />
</g>
<g style="fill:#000000; fill-opacity:0.0; 
stroke:#000000; stroke-width:39.3701; stroke-opacity:1; 
stroke-linecap:round; stroke-linejoin:round;">
</g>
<g style="fill:#000000; fill-opacity:0.0; 
stroke:#000000; stroke-width:59.0551; stroke-opacity:1; 
stroke-linecap:round; stroke-linejoin:round;">
<path d="M92885 112319
L92641 112319
L92617 112562
L92641 112538
L92690 112513
L92812 112513
L92860 112538
L92885 112562
L92909 112611
L92909 112733
L92885 112782
L92860 112806
L92812 112830
L92690 112830
L92641 112806
L92617 112782
" />
</g>
<g style="fill:#000000; fill-opacity:0.0; 
stroke:#000000; stroke-width:39.3701; stroke-opacity:1; 
stroke-linecap:round; stroke-linejoin:round;">
</g>
<g style="fill:#000000; fill-opacity:0.0; 
stroke:#000000; stroke-width:59.0551; stroke-opacity:1; 
stroke-linecap:round; stroke-linejoin:round;">
<path d="M112545 112319
L112448 112319
L112399 112343
L112375 112367
L112326 112440
L112302 112538
L112302 112733
L112326 112782
L112350 112806
L112399 112830
L112497 112830
L112545 112806
L112570 112782
L112594 112733
L112594 112611
L112570 112562
L112545 112538
L112497 112513
L112399 112513
L112350 112538
L112326 112562
L112302 112611
" />
</g>
<g style="fill:#000000; fill-opacity:0.0; 
stroke:#000000; stroke-width:39.3701; stroke-opacity:1; 
stroke-linecap:round; stroke-linejoin:round;">
</g>
<g style="fill:#000000; fill-opacity:0.0; 
stroke:#000000; stroke-width:59.0551; stroke-opacity:1; 
stroke-linecap:round; stroke-linejoin:round;">
<path d="M131962 112319
L132304 112319
L132084 112830
" />
</g>
<g style="fill:#000000; fill-opacity:0.0; 
stroke:#000000; stroke-width:39.3701; stroke-opacity:1; 
stroke-linecap:round; stroke-linejoin:round;">
</g>
<g style="fill:#000000; fill-opacity:0.0; 
stroke:#000000; stroke-width:59.0551; stroke-opacity:1; 
stroke-linecap:round; stroke-linejoin:round;">
<path d="M151769 112538
L151721 112513
L151696 112489
L151672 112440
L151672 112416
L151696 112367
L151721 112343
L151769 112319
L151867 112319
L151916 112343
L151940 112367
L151964 112416
L151964 112440
L151940 112489
L151916 112513
L151867 112538
L151769 112538
L151721 112562
L151696 112587
L151672 112635
L151672 112733
L151696 112782
L151721 112806
L151769 112830
L151867 112830
L151916 112806
L151940 112782
L151964 112733
L151964 112635
L151940 112587
L151916 112562
L151867 112538
" />
</g>
<g style="fill:#000000; fill-opacity:0.0; 
stroke:#000000; stroke-width:39.3701; stroke-opacity:1; 
stroke-linecap:round; stroke-linejoin:round;">
</g>
<g style="fill:#000000; fill-opacity:0.0; 
stroke:#000000; stroke-width:59.0551; stroke-opacity:1; 
stroke-linecap:round; stroke-linejoin:round;">
<path d="M3937 23622
L4724 23622
" />
</g>
<g style="fill:#000000; fill-opacity:0.0; 
stroke:#000000; stroke-width:39.3701; stroke-opacity:1; 
stroke-linecap:round; stroke-linejoin:round;">
</g>
<g style="fill:#000000; fill-opacity:0.0; 
stroke:#000000; stroke-width:59.0551; stroke-opacity:1; 
stroke-linecap:round; stroke-linejoin:round;">
<path d="M3937 43307
L4724 43307
" />
</g>
<g style="fill:#000000; fill-opacity:0.0; 
stroke:#000000; stroke-width:39.3701; stroke-opacity:1; 
stroke-linecap:round; stroke-linejoin:round;">
</g>
<g style="fill:#000000; fill-opacity:0.0; 
stroke:#000000; stroke-width:59.0551; stroke-opacity:1; 
stroke-linecap:round; stroke-linejoin:round;">
<path d="M3937 62992
L4724 62992
" />
</g>
<g style="fill:#000000; fill-opacity:0.0; 
stroke:#000000; stroke-width:39.3701; stroke-opacity:1; 
stroke-linecap:round; stroke-linejoin:round;">
</g>
<g style="fill:#000000; fill-opacity:0.0; 
stroke:#000000; stroke-width:59.0551; stroke-opacity:1; 
stroke-linecap:round; stroke-linejoin:round;">
<path d="M3937 82677
L4724 82677
" />
</g>
<g style="fill:#000000; fill-opacity:0.0; 
stroke:#000000; stroke-width:39.3701; stroke-opacity:1; 
stroke-linecap:round; stroke-linejoin:round;">
</g>
<g style="fill:#000000; fill-opacity:0.0; 
stroke:#000000; stroke-width:59.0551; stroke-opacity:1; 
stroke-linecap:round; stroke-linejoin:round;">
<path d="M3937 102362
L4724 102362
" />
</g>
<g style="fill:#000000; fill-opacity:0.0; 
stroke:#000000; stroke-width:39.3701; stroke-opacity:1; 
stroke-linecap:round; stroke-linejoin:round;">
</g>
<g style="fill:#000000; fill-opacity:0.0; 
stroke:#000000; stroke-width:59.0551; stroke-opacity:1; 
stroke-linecap:round; stroke-linejoin:round;">
<path d="M4208 13864
L4452 13864
" />
<path d="M4160 14011
L4330 13499
L4501 14011
" />
</g>
<g style="fill:#000000; fill-opacity:0.0; 
stroke:#000000; stroke-width:39.3701; stroke-opacity:1; 
stroke-linecap:round; stroke-linejoin:round;">
</g>
<g style="fill:#000000; fill-opacity:0.0; 
stroke:#000000; stroke-width:59.0551; stroke-opacity:1; 
stroke-linecap:round; stroke-linejoin:round;">
<path d="M4367 33428
L4440 33452
L4464 33476
L4489 33525
L4489 33598
L4464 33647
L4440 33671
L4391 33696
L4196 33696
L4196 33184
L4367 33184
L4416 33208
L4440 33233
L4464 33281
L4464 33330
L4440 33379
L4416 33403
L4367 33428
L4196 33428
" />
</g>
<g style="fill:#000000; fill-opacity:0.0; 
stroke:#000000; stroke-width:39.3701; stroke-opacity:1; 
stroke-linecap:round; stroke-linejoin:round;">
</g>
<g style="fill:#000000; fill-opacity:0.0; 
stroke:#000000; stroke-width:59.0551; stroke-opacity:1; 
stroke-linecap:round; stroke-linejoin:round;">
<path d="M4489 53332
L4464 53356
L4391 53381
L4342 53381
L4269 53356
L4221 53308
L4196 53259
L4172 53161
L4172 53088
L4196 52991
L4221 52942
L4269 52893
L4342 52869
L4391 52869
L4464 52893
L4489 52918
" />
</g>
<g style="fill:#000000; fill-opacity:0.0; 
stroke:#000000; stroke-width:39.3701; stroke-opacity:1; 
stroke-linecap:round; stroke-linejoin:round;">
</g>
<g style="fill:#000000; fill-opacity:0.0; 
stroke:#000000; stroke-width:59.0551; stroke-opacity:1; 
stroke-linecap:round; stroke-linejoin:round;">
<path d="M4196 73066
L4196 72554
L4318 72554
L4391 72578
L4440 72627
L4464 72676
L4489 72773
L4489 72846
L4464 72944
L4440 72993
L4391 73041
L4318 73066
L4196 73066
" />
</g>
<g style="fill:#000000; fill-opacity:0.0; 
stroke:#000000; stroke-width:39.3701; stroke-opacity:1; 
stroke-linecap:round; stroke-linejoin:round;">
</g>
<g style="fill:#000000; fill-opacity:0.0; 
stroke:#000000; stroke-width:59.0551; stroke-opacity:1; 
stroke-linecap:round; stroke-linejoin:round;">
<path d="M4221 92483
L4391 92483
" />
<path d="M4464 92751
L4221 92751
L4221 92239
L4464 92239
" />
</g>
<g style="fill:#000000; fill-opacity:0.0; 
stroke:#000000; stroke-width:39.3701; stroke-opacity:1; 
stroke-linecap:round; stroke-linejoin:round;">
</g>
<g style="fill:#000000; fill-opacity:0.0; 
stroke:#000000; stroke-width:59.0551; stroke-opacity:1; 
stroke-linecap:round; stroke-linejoin:round;">
<path d="M4403 112168
L4233 112168
" />
<path d="M4233 112436
L4233 111924
L4476 111924
" />
</g>
<g style="fill:#000000; fill-opacity:0.0; 
stroke:#000000; stroke-width:39.3701; stroke-opacity:1; 
stroke-linecap:round; stroke-linejoin:round;">
</g>
<g style="fill:#000000; fill-opacity:0.0; 
stroke:#000000; stroke-width:59.0551; stroke-opacity:1; 
stroke-linecap:round; stroke-linejoin:round;">
<path d="M161412 23622
L160625 23622
" />
</g>
<g style="fill:#000000; fill-opacity:0.0; 
stroke:#000000; stroke-width:39.3701; stroke-opacity:1; 
stroke-linecap:round; stroke-linejoin:round;">
</g>
<g style="fill:#000000; fill-opacity:0.0; 
stroke:#000000; stroke-width:59.0551; stroke-opacity:1; 
stroke-linecap:round; stroke-linejoin:round;">
<path d="M161412 43307
L160625 43307
" />
</g>
<g style="fill:#000000; fill-opacity:0.0; 
stroke:#000000; stroke-width:39.3701; stroke-opacity:1; 
stroke-linecap:round; stroke-linejoin:round;">
</g>
<g style="fill:#000000; fill-opacity:0.0; 
stroke:#000000; stroke-width:59.0551; stroke-opacity:1; 
stroke-linecap:round; stroke-linejoin:round;">
<path d="M161412 62992
L160625 62992
" />
</g>
<g style="fill:#000000; fill-opacity:0.0; 
stroke:#000000; stroke-width:39.3701; stroke-opacity:1; 
stroke-linecap:round; stroke-linejoin:round;">
</g>
<g style="fill:#000000; fill-opacity:0.0; 
stroke:#000000; stroke-width:59.0551; stroke-opacity:1; 
stroke-linecap:round; stroke-linejoin:round;">
<path d="M161412 82677
L160625 82677
" />
</g>
<g style="fill:#000000; fill-opacity:0.0; 
stroke:#000000; stroke-width:39.3701; stroke-opacity:1; 
stroke-linecap:round; stroke-linejoin:round;">
</g>
<g style="fill:#000000; fill-opacity:0.0; 
stroke:#000000; stroke-width:59.0551; stroke-opacity:1; 
stroke-linecap:round; stroke-linejoin:round;">
<path d="M161412 102362
L160625 102362
" />
</g>
<g style="fill:#000000; fill-opacity:0.0; 
stroke:#000000; stroke-width:39.3701; stroke-opacity:1; 
stroke-linecap:round; stroke-linejoin:round;">
</g>
<g style="fill:#000000; fill-opacity:0.0; 
stroke:#000000; stroke-width:59.0551; stroke-opacity:1; 
stroke-linecap:round; stroke-linejoin:round;">
<path d="M160897 13864
L161141 13864
" />
<path d="M160848 14011
L161019 13499
L161189 14011
" />
</g>
<g style="fill:#000000; fill-opacity:0.0; 
stroke:#000000; stroke-width:39.3701; stroke-opacity:1; 
stroke-linecap:round; stroke-linejoin:round;">
</g>
<g style="fill:#000000; fill-opacity:0.0; 
stroke:#000000; stroke-width:59.0551; stroke-opacity:1; 
stroke-linecap:round; stroke-linejoin:round;">
<path d="M161055 33428
L161128 33452
L161153 33476
L161177 33525
L161177 33598
L161153 33647
L161128 33671
L161080 33696
L160885 33696
L160885 33184
L161055 33184
L161104 33208
L161128 33233
L161153 33281
L161153 33330
L161128 33379
L161104 33403
L161055 33428
L160885 33428
" />
</g>
<g style="fill:#000000; fill-opacity:0.0; 
stroke:#000000; stroke-width:39.3701; stroke-opacity:1; 
stroke-linecap:round; stroke-linejoin:round;">
</g>
<g style="fill:#000000; fill-opacity:0.0; 
stroke:#000000; stroke-width:59.0551; stroke-opacity:1; 
stroke-linecap:round; stroke-linejoin:round;">
<path d="M161177 53332
L161153 53356
L161080 53381
L161031 53381
L160958 53356
L160909 53308
L160885 53259
L160860 53161
L160860 53088
L160885 52991
L160909 52942
L160958 52893
L161031 52869
L161080 52869
L161153 52893
L161177 52918
" />
</g>
<g style="fill:#000000; fill-opacity:0.0; 
stroke:#000000; stroke-width:39.3701; stroke-opacity:1; 
stroke-linecap:round; stroke-linejoin:round;">
</g>
<g style="fill:#000000; fill-opacity:0.0; 
stroke:#000000; stroke-width:59.0551; stroke-opacity:1; 
stroke-linecap:round; stroke-linejoin:round;">
<path d="M160885 73066
L160885 72554
L161007 72554
L161080 72578
L161128 72627
L161153 72676
L161177 72773
L161177 72846
L161153 72944
L161128 72993
L161080 73041
L161007 73066
L160885 73066
" />
</g>
<g style="fill:#000000; fill-opacity:0.0; 
stroke:#000000; stroke-width:39.3701; stroke-opacity:1; 
stroke-linecap:round; stroke-linejoin:round;">
</g>
<g style="fill:#000000; fill-opacity:0.0; 
stroke:#000000; stroke-width:59.0551; stroke-opacity:1; 
stroke-linecap:round; stroke-linejoin:round;">
<path d="M160909 92483
L161080 92483
" />
<path d="M161153 92751
L160909 92751
L160909 92239
L161153 92239
" />
</g>
<g style="fill:#000000; fill-opacity:0.0; 
stroke:#000000; stroke-width:39.3701; stroke-opacity:1; 
stroke-linecap:round; stroke-linejoin:round;">
</g>
<g style="fill:#000000; fill-opacity:0.0; 
stroke:#000000; stroke-width:59.0551; stroke-opacity:1; 
stroke-linecap:round; stroke-linejoin:round;">
<path d="M161092 112168
L160921 112168
" />
<path d="M160921 112436
L160921 111924
L161165 111924
" />
</g>
<g style="fill:#000000; fill-opacity:0.0; 
stroke:#000000; stroke-width:39.3701; stroke-opacity:1; 
stroke-linecap:round; stroke-linejoin:round;">
</g>
<g style="fill:#000000; fill-opacity:0.0; 
stroke:#000000; stroke-width:59.0551; stroke-opacity:1; 
stroke-linecap:round; stroke-linejoin:round;">
<path d="M127301 110543
L127301 109953
L127442 109953
L127526 109981
L127582 110037
L127610 110093
L127639 110206
L127639 110290
L127610 110403
L127582 110459
L127526 110515
L127442 110543
L127301 110543
" />
<path d="M128145 110543
L128145 110234
L128117 110178
L128060 110149
L127948 110149
L127892 110178
" />
<path d="M128145 110515
L128089 110543
L127948 110543
L127892 110515
L127864 110459
L127864 110403
L127892 110346
L127948 110318
L128089 110318
L128145 110290
" />
<path d="M128342 110149
L128567 110149
" />
<path d="M128426 109953
L128426 110459
L128454 110515
L128510 110543
L128567 110543
" />
<path d="M128988 110515
L128932 110543
L128820 110543
L128763 110515
L128735 110459
L128735 110234
L128763 110178
L128820 110149
L128932 110149
L128988 110178
L129017 110234
L129017 110290
L128735 110346
" />
<path d="M129270 110487
L129298 110515
L129270 110543
L129242 110515
L129270 110487
L129270 110543
" />
<path d="M129270 110178
L129298 110206
L129270 110234
L129242 110206
L129270 110178
L129270 110234
" />
</g>
<g style="fill:#000000; fill-opacity:0.0; 
stroke:#000000; stroke-width:39.3701; stroke-opacity:1; 
stroke-linecap:round; stroke-linejoin:round;">
</g>
<g style="fill:#000000; fill-opacity:0.0; 
stroke:#000000; stroke-width:59.0551; stroke-opacity:1; 
stroke-linecap:round; stroke-linejoin:round;">
<path d="M118105 110827
L160625 110827
" />
</g>
<g style="fill:#000000; fill-opacity:0.0; 
stroke:#000000; stroke-width:39.3701; stroke-opacity:1; 
stroke-linecap:round; stroke-linejoin:round;">
</g>
<g style="fill:#000000; fill-opacity:0.0; 
stroke:#000000; stroke-width:59.0551; stroke-opacity:1; 
stroke-linecap:round; stroke-linejoin:round;">
<path d="M118640 111645
L118640 111055
" />
<path d="M118977 111645
L118724 111308
" />
<path d="M118977 111055
L118640 111392
" />
<path d="M119230 111645
L119230 111252
" />
<path d="M119230 111055
L119202 111083
L119230 111111
L119258 111083
L119230 111055
L119230 111111
" />
<path d="M119849 111589
L119821 111617
L119736 111645
L119680 111645
L119596 111617
L119540 111561
L119511 111505
L119483 111392
L119483 111308
L119511 111196
L119540 111139
L119596 111083
L119680 111055
L119736 111055
L119821 111083
L119849 111111
" />
<path d="M120355 111645
L120355 111336
L120327 111280
L120271 111252
L120158 111252
L120102 111280
" />
<path d="M120355 111617
L120299 111645
L120158 111645
L120102 111617
L120074 111561
L120074 111505
L120102 111449
L120158 111421
L120299 111421
L120355 111392
" />
<path d="M120889 111645
L120889 111055
" />
<path d="M120889 111617
L120833 111645
L120721 111645
L120664 111617
L120636 111589
L120608 111533
L120608 111364
L120636 111308
L120664 111280
L120721 111252
L120833 111252
L120889 111280
" />
<path d="M121621 111336
L121817 111336
" />
<path d="M121902 111645
L121621 111645
L121621 111055
L121902 111055
" />
<path d="M122155 111589
L122183 111617
L122155 111645
L122127 111617
L122155 111589
L122155 111645
" />
<path d="M122436 111645
L122436 111055
L122577 111055
L122661 111083
L122717 111139
L122745 111196
L122774 111308
L122774 111392
L122745 111505
L122717 111561
L122661 111617
L122577 111645
L122436 111645
" />
<path d="M123027 111589
L123055 111617
L123027 111645
L122999 111617
L123027 111589
L123027 111645
" />
<path d="M123280 111477
L123561 111477
" />
<path d="M123224 111645
L123420 111055
L123617 111645
" />
<path d="M123814 111589
L123842 111617
L123814 111645
L123786 111617
L123814 111589
L123814 111645
" />
<path d="M124995 111645
L124995 111055
" />
<path d="M125051 111421
L125220 111645
" />
<path d="M125220 111252
L124995 111477
" />
<path d="M125473 111645
L125473 111252
" />
<path d="M125473 111055
L125445 111083
L125473 111111
L125501 111083
L125473 111055
L125473 111111
" />
<path d="M126008 111617
L125951 111645
L125839 111645
L125783 111617
L125754 111589
L125726 111533
L125726 111364
L125754 111308
L125783 111280
L125839 111252
L125951 111252
L126008 111280
" />
<path d="M126514 111645
L126514 111336
L126486 111280
L126429 111252
L126317 111252
L126261 111280
" />
<path d="M126514 111617
L126457 111645
L126317 111645
L126261 111617
L126233 111561
L126233 111505
L126261 111449
L126317 111421
L126457 111421
L126514 111392
" />
<path d="M127048 111645
L127048 111055
" />
<path d="M127048 111617
L126992 111645
L126879 111645
L126823 111617
L126795 111589
L126767 111533
L126767 111364
L126795 111308
L126823 111280
L126879 111252
L126992 111252
L127048 111280
" />
<path d="M128032 111252
L128032 111645
" />
<path d="M127892 111027
L127751 111449
L128117 111449
" />
<path d="M128342 111589
L128370 111617
L128342 111645
L128314 111617
L128342 111589
L128342 111645
" />
<path d="M128735 111055
L128792 111055
L128848 111083
L128876 111111
L128904 111167
L128932 111280
L128932 111421
L128904 111533
L128876 111589
L128848 111617
L128792 111645
L128735 111645
L128679 111617
L128651 111589
L128623 111533
L128595 111421
L128595 111280
L128623 111167
L128651 111111
L128679 111083
L128735 111055
" />
<path d="M129185 111589
L129213 111617
L129185 111645
L129157 111617
L129185 111589
L129185 111645
" />
<path d="M129438 111111
L129466 111083
L129523 111055
L129663 111055
L129720 111083
L129748 111111
L129776 111167
L129776 111224
L129748 111308
L129410 111645
L129776 111645
" />
<path d="M130029 111421
L130479 111421
" />
<path d="M130732 111617
L130788 111645
L130901 111645
L130957 111617
L130985 111561
L130985 111533
L130957 111477
L130901 111449
L130816 111449
L130760 111421
L130732 111364
L130732 111336
L130760 111280
L130816 111252
L130901 111252
L130957 111280
" />
<path d="M131154 111252
L131379 111252
" />
<path d="M131238 111055
L131238 111561
L131266 111617
L131323 111645
L131379 111645
" />
<path d="M131829 111645
L131829 111336
L131801 111280
L131744 111252
L131632 111252
L131576 111280
" />
<path d="M131829 111617
L131772 111645
L131632 111645
L131576 111617
L131547 111561
L131547 111505
L131576 111449
L131632 111421
L131772 111421
L131829 111392
" />
<path d="M132110 111645
L132110 111055
" />
<path d="M132110 111280
L132166 111252
L132279 111252
L132335 111280
L132363 111308
L132391 111364
L132391 111533
L132363 111589
L132335 111617
L132279 111645
L132166 111645
L132110 111617
" />
<path d="M132729 111645
L132672 111617
L132644 111561
L132644 111055
" />
<path d="M133179 111617
L133122 111645
L133010 111645
L132954 111617
L132925 111561
L132925 111336
L132954 111280
L133010 111252
L133122 111252
L133179 111280
L133207 111336
L133207 111392
L132925 111449
" />
</g>
<g style="fill:#000000; fill-opacity:0.0; 
stroke:#000000; stroke-width:39.3701; stroke-opacity:1; 
stroke-linecap:round; stroke-linejoin:round;">
</g>
<g style="fill:#000000; fill-opacity:0.0; 
stroke:#000000; stroke-width:59.0551; stroke-opacity:1; 
stroke-linecap:round; stroke-linejoin:round;">
<path d="M118105 109646
L160625 109646
" />
</g>
<g style="fill:#000000; fill-opacity:0.0; 
stroke:#000000; stroke-width:39.3701; stroke-opacity:1; 
stroke-linecap:round; stroke-linejoin:round;">
</g>
<g style="fill:#000000; fill-opacity:0.0; 
stroke:#000000; stroke-width:118.11; stroke-opacity:1; 
stroke-linecap:round; stroke-linejoin:round;">
<path d="M152442 110543
L152245 110262
" />
<path d="M152104 110543
L152104 109953
L152329 109953
L152385 109981
L152414 110009
L152442 110065
L152442 110149
L152414 110206
L152385 110234
L152329 110262
L152104 110262
" />
<path d="M152920 110515
L152864 110543
L152751 110543
L152695 110515
L152667 110459
L152667 110234
L152695 110178
L152751 110149
L152864 110149
L152920 110178
L152948 110234
L152948 110290
L152667 110346
" />
<path d="M153145 110149
L153285 110543
L153426 110149
" />
<path d="M153651 110487
L153679 110515
L153651 110543
L153623 110515
L153651 110487
L153651 110543
" />
<path d="M153651 110178
L153679 110206
L153651 110234
L153623 110206
L153651 110178
L153651 110234
" />
</g>
<g style="fill:#000000; fill-opacity:0.0; 
stroke:#000000; stroke-width:39.3701; stroke-opacity:1; 
stroke-linecap:round; stroke-linejoin:round;">
</g>
<g style="fill:#000000; fill-opacity:0.0; 
stroke:#000000; stroke-width:59.0551; stroke-opacity:1; 
stroke-linecap:round; stroke-linejoin:round;">
<path d="M118612 110515
L118696 110543
L118837 110543
L118893 110515
L118921 110487
L118949 110431
L118949 110374
L118921 110318
L118893 110290
L118837 110262
L118724 110234
L118668 110206
L118640 110178
L118612 110121
L118612 110065
L118640 110009
L118668 109981
L118724 109953
L118865 109953
L118949 109981
" />
<path d="M119202 110543
L119202 110149
" />
<path d="M119202 109953
L119174 109981
L119202 110009
L119230 109981
L119202 109953
L119202 110009
" />
<path d="M119427 110149
L119736 110149
L119427 110543
L119736 110543
" />
<path d="M120186 110515
L120130 110543
L120018 110543
L119961 110515
L119933 110459
L119933 110234
L119961 110178
L120018 110149
L120130 110149
L120186 110178
L120215 110234
L120215 110290
L119933 110346
" />
<path d="M120468 110487
L120496 110515
L120468 110543
L120439 110515
L120468 110487
L120468 110543
" />
<path d="M120468 110178
L120496 110206
L120468 110234
L120439 110206
L120468 110178
L120468 110234
" />
<path d="M121171 110374
L121452 110374
" />
<path d="M121114 110543
L121311 109953
L121508 110543
" />
<path d="M121649 109953
L122014 109953
L121817 110178
L121902 110178
L121958 110206
L121986 110234
L122014 110290
L122014 110431
L121986 110487
L121958 110515
L121902 110543
L121733 110543
L121677 110515
L121649 110487
" />
</g>
<g style="fill:#000000; fill-opacity:0.0; 
stroke:#000000; stroke-width:39.3701; stroke-opacity:1; 
stroke-linecap:round; stroke-linejoin:round;">
</g>
<g style="fill:#000000; fill-opacity:0.0; 
stroke:#000000; stroke-width:59.0551; stroke-opacity:1; 
stroke-linecap:round; stroke-linejoin:round;">
<path d="M152104 111645
L152104 111055
" />
<path d="M152639 111645
L152639 111055
" />
<path d="M152639 111617
L152582 111645
L152470 111645
L152414 111617
L152385 111589
L152357 111533
L152357 111364
L152385 111308
L152414 111280
L152470 111252
L152582 111252
L152639 111280
" />
<path d="M152920 111589
L152948 111617
L152920 111645
L152892 111617
L152920 111589
L152920 111645
" />
<path d="M152920 111280
L152948 111308
L152920 111336
L152892 111308
L152920 111280
L152920 111336
" />
<path d="M153960 111645
L153623 111645
" />
<path d="M153792 111645
L153792 111055
L153735 111139
L153679 111196
L153623 111224
" />
<path d="M154635 111027
L154129 111786
" />
<path d="M155141 111645
L154804 111645
" />
<path d="M154973 111645
L154973 111055
L154916 111139
L154860 111196
L154804 111224
" />
</g>
<g style="fill:#000000; fill-opacity:0.0; 
stroke:#000000; stroke-width:39.3701; stroke-opacity:1; 
stroke-linecap:round; stroke-linejoin:round;">
</g>
<g style="fill:#000000; fill-opacity:0.0; 
stroke:#000000; stroke-width:59.0551; stroke-opacity:1; 
stroke-linecap:round; stroke-linejoin:round;">
<path d="M118105 108071
L160625 108071
" />
</g>
<g style="fill:#000000; fill-opacity:0.0; 
stroke:#000000; stroke-width:39.3701; stroke-opacity:1; 
stroke-linecap:round; stroke-linejoin:round;">
</g>
<g style="fill:#000000; fill-opacity:0.0; 
stroke:#000000; stroke-width:157.48; stroke-opacity:1; 
stroke-linecap:round; stroke-linejoin:round;">
<path d="M118677 108349
L119127 108349
" />
<path d="M118804 109136
L118902 108349
" />
<path d="M119291 109136
L119357 108611
" />
<path d="M119390 108349
L119347 108386
L119380 108424
L119422 108386
L119390 108349
L119380 108424
" />
<path d="M119619 108611
L119919 108611
" />
<path d="M119765 108349
L119680 109024
L119708 109099
L119779 109136
L119854 109136
" />
<path d="M120229 109136
L120158 109099
L120130 109024
L120215 108349
" />
<path d="M120833 109099
L120754 109136
L120604 109136
L120533 109099
L120505 109024
L120543 108724
L120589 108649
L120669 108611
L120819 108611
L120889 108649
L120918 108724
L120908 108799
L120524 108874
" />
<path d="M121213 109061
L121246 109099
L121203 109136
L121171 109099
L121213 109061
L121203 109136
" />
<path d="M121264 108649
L121297 108686
L121255 108724
L121222 108686
L121264 108649
L121255 108724
" />
</g>
<g style="fill:#000000; fill-opacity:0.0; 
stroke:#000000; stroke-width:39.3701; stroke-opacity:1; 
stroke-linecap:round; stroke-linejoin:round;">
</g>
<g style="fill:#000000; fill-opacity:0.0; 
stroke:#000000; stroke-width:59.0551; stroke-opacity:1; 
stroke-linecap:round; stroke-linejoin:round;">
<path d="M118837 107320
L118640 107320
" />
<path d="M118640 107630
L118640 107039
L118921 107039
" />
<path d="M119146 107630
L119146 107236
" />
<path d="M119146 107039
L119118 107067
L119146 107095
L119174 107067
L119146 107039
L119146 107095
" />
<path d="M119511 107630
L119455 107602
L119427 107545
L119427 107039
" />
<path d="M119961 107602
L119905 107630
L119793 107630
L119736 107602
L119708 107545
L119708 107320
L119736 107264
L119793 107236
L119905 107236
L119961 107264
L119990 107320
L119990 107377
L119708 107433
" />
<path d="M120243 107573
L120271 107602
L120243 107630
L120215 107602
L120243 107573
L120243 107630
" />
<path d="M120243 107264
L120271 107292
L120243 107320
L120215 107292
L120243 107264
L120243 107320
" />
<path d="M120889 107236
L121114 107236
" />
<path d="M120974 107039
L120974 107545
L121002 107602
L121058 107630
L121114 107630
" />
<path d="M121311 107630
L121311 107039
" />
<path d="M121564 107630
L121564 107320
L121536 107264
L121480 107236
L121396 107236
L121339 107264
L121311 107292
" />
<path d="M122099 107630
L122099 107320
L122071 107264
L122014 107236
L121902 107236
L121846 107264
" />
<path d="M122099 107602
L122042 107630
L121902 107630
L121846 107602
L121817 107545
L121817 107489
L121846 107433
L121902 107405
L122042 107405
L122099 107377
" />
<path d="M122380 107236
L122380 107630
" />
<path d="M122380 107292
L122408 107264
L122464 107236
L122549 107236
L122605 107264
L122633 107320
L122633 107630
" />
<path d="M122914 107630
L122914 107039
" />
<path d="M123167 107630
L123167 107320
L123139 107264
L123083 107236
L122999 107236
L122942 107264
L122914 107292
" />
<path d="M123533 107630
L123477 107602
L123448 107545
L123448 107039
" />
<path d="M123983 107602
L123927 107630
L123814 107630
L123758 107602
L123730 107545
L123730 107320
L123758 107264
L123814 107236
L123927 107236
L123983 107264
L124011 107320
L124011 107377
L123730 107433
" />
<path d="M124517 107630
L124517 107039
" />
<path d="M124517 107602
L124461 107630
L124348 107630
L124292 107602
L124264 107573
L124236 107517
L124236 107349
L124264 107292
L124292 107264
L124348 107236
L124461 107236
L124517 107264
" />
<path d="M125051 107630
L125051 107039
" />
<path d="M125051 107602
L124995 107630
L124883 107630
L124826 107602
L124798 107573
L124770 107517
L124770 107349
L124798 107292
L124826 107264
L124883 107236
L124995 107236
L125051 107264
" />
<path d="M125586 107236
L125586 107630
" />
<path d="M125333 107236
L125333 107545
L125361 107602
L125417 107630
L125501 107630
L125558 107602
L125586 107573
" />
<path d="M125951 107630
L125895 107602
L125867 107573
L125839 107517
L125839 107349
L125867 107292
L125895 107264
L125951 107236
L126036 107236
L126092 107264
L126120 107292
L126148 107349
L126148 107517
L126120 107573
L126092 107602
L126036 107630
L125951 107630
" />
<path d="M126401 107236
L126401 107630
" />
<path d="M126401 107292
L126429 107264
L126486 107236
L126570 107236
L126626 107264
L126654 107320
L126654 107630
" />
<path d="M127189 107236
L127189 107714
L127161 107770
L127132 107798
L127076 107827
L126992 107827
L126936 107798
" />
<path d="M127189 107602
L127132 107630
L127020 107630
L126964 107602
L126936 107573
L126907 107517
L126907 107349
L126936 107292
L126964 107264
L127020 107236
L127132 107236
L127189 107264
" />
<path d="M127470 107573
L127498 107602
L127470 107630
L127442 107602
L127470 107573
L127470 107630
" />
<path d="M127751 107630
L127751 107039
" />
<path d="M127807 107405
L127976 107630
" />
<path d="M127976 107236
L127751 107461
" />
<path d="M128229 107630
L128229 107236
" />
<path d="M128229 107039
L128201 107067
L128229 107095
L128257 107067
L128229 107039
L128229 107095
" />
<path d="M128763 107602
L128707 107630
L128595 107630
L128538 107602
L128510 107573
L128482 107517
L128482 107349
L128510 107292
L128538 107264
L128595 107236
L128707 107236
L128763 107264
" />
<path d="M129270 107630
L129270 107320
L129242 107264
L129185 107236
L129073 107236
L129017 107264
" />
<path d="M129270 107602
L129213 107630
L129073 107630
L129017 107602
L128988 107545
L128988 107489
L129017 107433
L129073 107405
L129213 107405
L129270 107377
" />
<path d="M129804 107630
L129804 107039
" />
<path d="M129804 107602
L129748 107630
L129635 107630
L129579 107602
L129551 107573
L129523 107517
L129523 107349
L129551 107292
L129579 107264
L129635 107236
L129748 107236
L129804 107264
" />
<path d="M129945 107686
L130394 107686
" />
<path d="M130535 107236
L130535 107827
" />
<path d="M130535 107264
L130591 107236
L130704 107236
L130760 107264
L130788 107292
L130816 107349
L130816 107517
L130788 107573
L130760 107602
L130704 107630
L130591 107630
L130535 107602
" />
<path d="M131323 107602
L131266 107630
L131154 107630
L131098 107602
L131069 107573
L131041 107517
L131041 107349
L131069 107292
L131098 107264
L131154 107236
L131266 107236
L131323 107264
" />
<path d="M131576 107630
L131576 107039
" />
<path d="M131576 107264
L131632 107236
L131744 107236
L131801 107264
L131829 107292
L131857 107349
L131857 107517
L131829 107573
L131801 107602
L131744 107630
L131632 107630
L131576 107602
" />
</g>
<g style="fill:#000000; fill-opacity:0.0; 
stroke:#000000; stroke-width:39.3701; stroke-opacity:1; 
stroke-linecap:round; stroke-linejoin:round;">
</g>
<g style="fill:#000000; fill-opacity:0.0; 
stroke:#000000; stroke-width:59.0551; stroke-opacity:1; 
stroke-linecap:round; stroke-linejoin:round;">
<path d="M118105 105709
L160625 105709
" />
</g>
<g style="fill:#000000; fill-opacity:0.0; 
stroke:#000000; stroke-width:39.3701; stroke-opacity:1; 
stroke-linecap:round; stroke-linejoin:round;">
</g>
<g style="fill:#000000; fill-opacity:0.0; 
stroke:#000000; stroke-width:59.0551; stroke-opacity:1; 
stroke-linecap:round; stroke-linejoin:round;">
<path d="M118612 106539
L118696 106567
L118837 106567
L118893 106539
L118921 106510
L118949 106454
L118949 106398
L118921 106342
L118893 106314
L118837 106286
L118724 106257
L118668 106229
L118640 106201
L118612 106145
L118612 106089
L118640 106032
L118668 106004
L118724 105976
L118865 105976
L118949 106004
" />
<path d="M119202 106567
L119202 105976
" />
<path d="M119455 106567
L119455 106257
L119427 106201
L119371 106173
L119287 106173
L119230 106201
L119202 106229
" />
<path d="M119961 106539
L119905 106567
L119793 106567
L119736 106539
L119708 106482
L119708 106257
L119736 106201
L119793 106173
L119905 106173
L119961 106201
L119990 106257
L119990 106314
L119708 106370
" />
<path d="M120468 106539
L120411 106567
L120299 106567
L120243 106539
L120215 106482
L120215 106257
L120243 106201
L120299 106173
L120411 106173
L120468 106201
L120496 106257
L120496 106314
L120215 106370
" />
<path d="M120664 106173
L120889 106173
" />
<path d="M120749 105976
L120749 106482
L120777 106539
L120833 106567
L120889 106567
" />
<path d="M121086 106510
L121114 106539
L121086 106567
L121058 106539
L121086 106510
L121086 106567
" />
<path d="M121086 106201
L121114 106229
L121086 106257
L121058 106229
L121086 106201
L121086 106257
" />
</g>
<g style="fill:#000000; fill-opacity:0.0; 
stroke:#000000; stroke-width:39.3701; stroke-opacity:1; 
stroke-linecap:round; stroke-linejoin:round;">
</g>
<g style="fill:#000000; fill-opacity:0.0; 
stroke:#000000; stroke-width:59.0551; stroke-opacity:1; 
stroke-linecap:round; stroke-linejoin:round;">
<path d="M125979 109646
L125979 110827
" />
</g>
<g style="fill:#000000; fill-opacity:0.0; 
stroke:#000000; stroke-width:39.3701; stroke-opacity:1; 
stroke-linecap:round; stroke-linejoin:round;">
</g>
<g style="fill:#000000; fill-opacity:0.0; 
stroke:#000000; stroke-width:59.0551; stroke-opacity:1; 
stroke-linecap:round; stroke-linejoin:round;">
<path d="M151176 109646
L151176 112205
" />
</g>
<g style="fill:#C2C200; fill-opacity:0.0; 
stroke:#C2C200; stroke-width:59.0551; stroke-opacity:1; 
stroke-linecap:round; stroke-linejoin:round;">
</g>
<g style="fill:#C2C200; fill-opacity:0.0; 
stroke:#C2C200; stroke-width:39.3701; stroke-opacity:1; 
stroke-linecap:round; stroke-linejoin:round;">
<path d="M22000 19600
L22000 21580
" />
<path d="M130268 21580
L22006 21580
" />
<path d="M130267 19600
L130267 21580
" />
<path d="M22000 19600
L130267 19600
" />
</g>
<g style="fill:#840000; fill-opacity:0.0; 
stroke:#840000; stroke-width:39.3701; stroke-opacity:1; 
stroke-linecap:round; stroke-linejoin:round;">
</g>
<g style="fill:#840000; fill-opacity:0.0; 
stroke:#840000; stroke-width:0; stroke-opacity:1; 
stroke-linecap:round; stroke-linejoin:round;">
</g>
<g style="fill:#840000; fill-opacity:1.0; 
stroke:#840000; stroke-width:0; stroke-opacity:1; 
stroke-linecap:round; stroke-linejoin:round;">
<polyline style="fill-rule:evenodd;"
points="125301,20127
125301,21072
124908,21072
124908,20127
125301,20127
" /> 
<polyline style="fill-rule:evenodd;"
points="124238,20127
124238,21072
123845,21072
123845,20127
124238,20127
" /> 
<polyline style="fill-rule:evenodd;"
points="129674,19850
130146,19850
130146,20322
129674,20322
129674,19850
" /> 
<polyline style="fill-rule:evenodd;"
points="129674,20932
130146,20932
130146,21404
129674,21404
129674,20932
" /> 
<polyline style="fill-rule:evenodd;"
points="22134,19820
22606,19820
22606,20292
22134,20292
22134,19820
" /> 
<polyline style="fill-rule:evenodd;"
points="22134,20902
22606,20902
22606,21374
22134,21374
22134,20902
" /> 
<polyline style="fill-rule:evenodd;"
points="37341,20418
37341,20024
37577,20024
37577,20418
37341,20418
" /> 
<polyline style="fill-rule:evenodd;"
points="37853,20418
37853,20024
38089,20024
38089,20418
37853,20418
" /> 
<polyline style="fill-rule:evenodd;"
points="37597,21166
37597,20772
37833,20772
37833,21166
37597,21166
" /> 
<polyline style="fill-rule:evenodd;"
points="52726,20418
52726,20024
52962,20024
52962,20418
52726,20418
" /> 
<polyline style="fill-rule:evenodd;"
points="53238,20418
53238,20024
53474,20024
53474,20418
53238,20418
" /> 
<polyline style="fill-rule:evenodd;"
points="52982,21166
52982,20772
53218,20772
53218,21166
52982,21166
" /> 
<polyline style="fill-rule:evenodd;"
points="98341,20438
98341,20044
98577,20044
98577,20438
98341,20438
" /> 
<polyline style="fill-rule:evenodd;"
points="98853,20438
98853,20044
99089,20044
99089,20438
98853,20438
" /> 
<polyline style="fill-rule:evenodd;"
points="98597,21186
98597,20792
98833,20792
98833,21186
98597,21186
" /> 
<polyline style="fill-rule:evenodd;"
points="68036,20418
68036,20024
68272,20024
68272,20418
68036,20418
" /> 
<polyline style="fill-rule:evenodd;"
points="68548,20418
68548,20024
68784,20024
68784,20418
68548,20418
" /> 
<polyline style="fill-rule:evenodd;"
points="68292,21166
68292,20772
68528,20772
68528,21166
68292,21166
" /> 
<polyline style="fill-rule:evenodd;"
points="113376,20418
113376,20024
113612,20024
113612,20418
113376,20418
" /> 
<polyline style="fill-rule:evenodd;"
points="113888,20418
113888,20024
114124,20024
114124,20418
113888,20418
" /> 
<polyline style="fill-rule:evenodd;"
points="113632,21166
113632,20772
113868,20772
113868,21166
113632,21166
" /> 
<polyline style="fill-rule:evenodd;"
points="128016,20413
128016,20019
128252,20019
128252,20413
128016,20413
" /> 
<polyline style="fill-rule:evenodd;"
points="128528,20413
128528,20019
128764,20019
128764,20413
128528,20413
" /> 
<polyline style="fill-rule:evenodd;"
points="128272,21161
128272,20767
128508,20767
128508,21161
128272,21161
" /> 
<polyline style="fill-rule:evenodd;"
points="127877,20065
127877,21010
127484,21010
127484,20065
127877,20065
" /> 
<polyline style="fill-rule:evenodd;"
points="126814,20065
126814,21010
126421,21010
126421,20065
126814,20065
" /> 
<polyline style="fill-rule:evenodd;"
points="123024,20132
123024,21077
122631,21077
122631,20132
123024,20132
" /> 
<polyline style="fill-rule:evenodd;"
points="121961,20132
121961,21077
121568,21077
121568,20132
121961,20132
" /> 
<polyline style="fill-rule:evenodd;"
points="120639,20122
120639,21067
120246,21067
120246,20122
120639,20122
" /> 
<polyline style="fill-rule:evenodd;"
points="119576,20122
119576,21067
119183,21067
119183,20122
119576,20122
" /> 
<polyline style="fill-rule:evenodd;"
points="118311,20127
118311,21072
117918,21072
117918,20127
118311,20127
" /> 
<polyline style="fill-rule:evenodd;"
points="117248,20127
117248,21072
116855,21072
116855,20127
117248,20127
" /> 
<polyline style="fill-rule:evenodd;"
points="115742,20179
115742,21124
115349,21124
115349,20179
115742,20179
" /> 
<polyline style="fill-rule:evenodd;"
points="114679,20179
114679,21124
114286,21124
114286,20179
114679,20179
" /> 
<polyline style="fill-rule:evenodd;"
points="113201,20033
113201,20978
112808,20978
112808,20033
113201,20033
" /> 
<polyline style="fill-rule:evenodd;"
points="112138,20033
112138,20978
111745,20978
111745,20033
112138,20033
" /> 
<polyline style="fill-rule:evenodd;"
points="110564,20127
110564,21072
110171,21072
110171,20127
110564,20127
" /> 
<polyline style="fill-rule:evenodd;"
points="109501,20127
109501,21072
109108,21072
109108,20127
109501,20127
" /> 
<polyline style="fill-rule:evenodd;"
points="108186,20132
108186,21077
107793,21077
107793,20132
108186,20132
" /> 
<polyline style="fill-rule:evenodd;"
points="107123,20132
107123,21077
106730,21077
106730,20132
107123,20132
" /> 
<polyline style="fill-rule:evenodd;"
points="105744,20127
105744,21072
105351,21072
105351,20127
105744,20127
" /> 
<polyline style="fill-rule:evenodd;"
points="104681,20127
104681,21072
104288,21072
104288,20127
104681,20127
" /> 
<polyline style="fill-rule:evenodd;"
points="103344,20107
103344,21052
102951,21052
102951,20107
103344,20107
" /> 
<polyline style="fill-rule:evenodd;"
points="102281,20107
102281,21052
101888,21052
101888,20107
102281,20107
" /> 
<polyline style="fill-rule:evenodd;"
points="98157,19985
98157,20930
97764,20930
97764,19985
98157,19985
" /> 
<polyline style="fill-rule:evenodd;"
points="97094,19985
97094,20930
96701,20930
96701,19985
97094,19985
" /> 
<polyline style="fill-rule:evenodd;"
points="95544,20137
95544,21082
95151,21082
95151,20137
95544,20137
" /> 
<polyline style="fill-rule:evenodd;"
points="94481,20137
94481,21082
94088,21082
94088,20137
94481,20137
" /> 
<polyline style="fill-rule:evenodd;"
points="92976,20132
92976,21077
92583,21077
92583,20132
92976,20132
" /> 
<polyline style="fill-rule:evenodd;"
points="91913,20132
91913,21077
91520,21077
91520,20132
91913,20132
" /> 
<polyline style="fill-rule:evenodd;"
points="90494,20107
90494,21052
90101,21052
90101,20107
90494,20107
" /> 
<polyline style="fill-rule:evenodd;"
points="89431,20107
89431,21052
89038,21052
89038,20107
89431,20107
" /> 
<polyline style="fill-rule:evenodd;"
points="88139,20122
88139,21067
87746,21067
87746,20122
88139,20122
" /> 
<polyline style="fill-rule:evenodd;"
points="87076,20122
87076,21067
86683,21067
86683,20122
87076,20122
" /> 
<polyline style="fill-rule:evenodd;"
points="85556,20137
85556,21082
85163,21082
85163,20137
85556,20137
" /> 
<polyline style="fill-rule:evenodd;"
points="84493,20137
84493,21082
84100,21082
84100,20137
84493,20137
" /> 
<polyline style="fill-rule:evenodd;"
points="82984,20057
82984,21002
82591,21002
82591,20057
82984,20057
" /> 
<polyline style="fill-rule:evenodd;"
points="81921,20057
81921,21002
81528,21002
81528,20057
81921,20057
" /> 
<polyline style="fill-rule:evenodd;"
points="80356,20127
80356,21072
79963,21072
79963,20127
80356,20127
" /> 
<polyline style="fill-rule:evenodd;"
points="79293,20127
79293,21072
78900,21072
78900,20127
79293,20127
" /> 
<polyline style="fill-rule:evenodd;"
points="77936,20137
77936,21082
77543,21082
77543,20137
77936,20137
" /> 
<polyline style="fill-rule:evenodd;"
points="76873,20137
76873,21082
76480,21082
76480,20137
76873,20137
" /> 
<polyline style="fill-rule:evenodd;"
points="75426,20112
75426,21057
75033,21057
75033,20112
75426,20112
" /> 
<polyline style="fill-rule:evenodd;"
points="74363,20112
74363,21057
73970,21057
73970,20112
74363,20112
" /> 
<polyline style="fill-rule:evenodd;"
points="73024,20127
73024,21072
72630,21072
72630,20127
73024,20127
" /> 
<polyline style="fill-rule:evenodd;"
points="71961,20127
71961,21072
71567,21072
71567,20127
71961,20127
" /> 
<polyline style="fill-rule:evenodd;"
points="70430,20167
70430,21112
70037,21112
70037,20167
70430,20167
" /> 
<polyline style="fill-rule:evenodd;"
points="69367,20167
69367,21112
68974,21112
68974,20167
69367,20167
" /> 
<polyline style="fill-rule:evenodd;"
points="67859,20087
67859,21032
67466,21032
67466,20087
67859,20087
" /> 
<polyline style="fill-rule:evenodd;"
points="66796,20087
66796,21032
66403,21032
66403,20087
66796,20087
" /> 
<polyline style="fill-rule:evenodd;"
points="65221,20132
65221,21077
64828,21077
64828,20132
65221,20132
" /> 
<polyline style="fill-rule:evenodd;"
points="64158,20132
64158,21077
63765,21077
63765,20132
64158,20132
" /> 
<polyline style="fill-rule:evenodd;"
points="62714,20127
62714,21072
62321,21072
62321,20127
62714,20127
" /> 
<polyline style="fill-rule:evenodd;"
points="61651,20127
61651,21072
61258,21072
61258,20127
61651,20127
" /> 
<polyline style="fill-rule:evenodd;"
points="60209,20127
60209,21072
59816,21072
59816,20127
60209,20127
" /> 
<polyline style="fill-rule:evenodd;"
points="59146,20127
59146,21072
58753,21072
58753,20127
59146,20127
" /> 
<polyline style="fill-rule:evenodd;"
points="57754,20132
57754,21077
57361,21077
57361,20132
57754,20132
" /> 
<polyline style="fill-rule:evenodd;"
points="56691,20132
56691,21077
56298,21077
56298,20132
56691,20132
" /> 
<polyline style="fill-rule:evenodd;"
points="55109,20132
55109,21077
54716,21077
54716,20132
55109,20132
" /> 
<polyline style="fill-rule:evenodd;"
points="54046,20132
54046,21077
53653,21077
53653,20132
54046,20132
" /> 
<polyline style="fill-rule:evenodd;"
points="52544,20097
52544,21042
52151,21042
52151,20097
52544,20097
" /> 
<polyline style="fill-rule:evenodd;"
points="51481,20097
51481,21042
51088,21042
51088,20097
51481,20097
" /> 
<polyline style="fill-rule:evenodd;"
points="49924,20127
49924,21072
49531,21072
49531,20127
49924,20127
" /> 
<polyline style="fill-rule:evenodd;"
points="48861,20127
48861,21072
48468,21072
48468,20127
48861,20127
" /> 
<polyline style="fill-rule:evenodd;"
points="47364,20132
47364,21077
46971,21077
46971,20132
47364,20132
" /> 
<polyline style="fill-rule:evenodd;"
points="46301,20132
46301,21077
45908,21077
45908,20132
46301,20132
" /> 
<polyline style="fill-rule:evenodd;"
points="44874,20132
44874,21077
44481,21077
44481,20132
44874,20132
" /> 
<polyline style="fill-rule:evenodd;"
points="43811,20132
43811,21077
43418,21077
43418,20132
43811,20132
" /> 
<polyline style="fill-rule:evenodd;"
points="42359,20127
42359,21072
41966,21072
41966,20127
42359,20127
" /> 
<polyline style="fill-rule:evenodd;"
points="41296,20127
41296,21072
40903,21072
40903,20127
41296,20127
" /> 
<polyline style="fill-rule:evenodd;"
points="39738,20147
39738,21092
39345,21092
39345,20147
39738,20147
" /> 
<polyline style="fill-rule:evenodd;"
points="38675,20147
38675,21092
38282,21092
38282,20147
38675,20147
" /> 
<polyline style="fill-rule:evenodd;"
points="37165,20099
37165,21044
36772,21044
36772,20099
37165,20099
" /> 
<polyline style="fill-rule:evenodd;"
points="36102,20099
36102,21044
35709,21044
35709,20099
36102,20099
" /> 
<polyline style="fill-rule:evenodd;"
points="34511,20132
34511,21077
34118,21077
34118,20132
34511,20132
" /> 
<polyline style="fill-rule:evenodd;"
points="33448,20132
33448,21077
33055,21077
33055,20132
33448,20132
" /> 
<polyline style="fill-rule:evenodd;"
points="32174,20137
32174,21082
31781,21082
31781,20137
32174,20137
" /> 
<polyline style="fill-rule:evenodd;"
points="31111,20137
31111,21082
30718,21082
30718,20137
31111,20137
" /> 
<polyline style="fill-rule:evenodd;"
points="29691,20132
29691,21077
29298,21077
29298,20132
29691,20132
" /> 
<polyline style="fill-rule:evenodd;"
points="28628,20132
28628,21077
28235,21077
28235,20132
28628,20132
" /> 
<polyline style="fill-rule:evenodd;"
points="27251,20132
27251,21077
26858,21077
26858,20132
27251,20132
" /> 
<polyline style="fill-rule:evenodd;"
points="26188,20132
26188,21077
25795,21077
25795,20132
26188,20132
" /> 
<polyline style="fill-rule:evenodd;"
points="24786,20127
24786,21072
24393,21072
24393,20127
24786,20127
" /> 
<polyline style="fill-rule:evenodd;"
points="23723,20127
23723,21072
23330,21072
23330,20127
23723,20127
" /> 
<polyline style="fill-rule:evenodd;"
points="100741,20145
100741,21090
100348,21090
100348,20145
100741,20145
" /> 
<polyline style="fill-rule:evenodd;"
points="99678,20145
99678,21090
99285,21090
99285,20145
99678,20145
" /> 
<polyline style="fill-rule:evenodd;"
points="83161,20428
83161,20034
83397,20034
83397,20428
83161,20428
" /> 
<polyline style="fill-rule:evenodd;"
points="83673,20428
83673,20034
83909,20034
83909,20428
83673,20428
" /> 
<polyline style="fill-rule:evenodd;"
points="83417,21176
83417,20782
83653,20782
83653,21176
83417,21176
" /> 
<polyline style="fill-rule:evenodd;"
points="80679,19623
81190,19623
81190,20213
80679,20213
80679,19623
" /> 
<polyline style="fill-rule:evenodd;"
points="80679,20705
81190,20705
81190,21257
80679,21257
80679,20705
" /> 
<polyline style="fill-rule:evenodd;"
points="34824,19633
35335,19633
35335,20223
34824,20223
34824,19633
" /> 
<polyline style="fill-rule:evenodd;"
points="34824,20715
35335,20715
35335,21267
34824,21267
34824,20715
" /> 
<polyline style="fill-rule:evenodd;"
points="40585,21551
40074,21551
40074,20961
40585,20961
40585,21551
" /> 
<polyline style="fill-rule:evenodd;"
points="40585,20469
40074,20469
40074,19917
40585,19917
40585,20469
" /> 
<polyline style="fill-rule:evenodd;"
points="55960,21546
55449,21546
55449,20956
55960,20956
55960,21546
" /> 
<polyline style="fill-rule:evenodd;"
points="55960,20464
55449,20464
55449,19912
55960,19912
55960,20464
" /> 
<polyline style="fill-rule:evenodd;"
points="101565,21551
101054,21551
101054,20961
101565,20961
101565,21551
" /> 
<polyline style="fill-rule:evenodd;"
points="101565,20469
101054,20469
101054,19917
101565,19917
101565,20469
" /> 
<polyline style="fill-rule:evenodd;"
points="71250,21551
70739,21551
70739,20961
71250,20961
71250,21551
" /> 
<polyline style="fill-rule:evenodd;"
points="71250,20469
70739,20469
70739,19917
71250,19917
71250,20469
" /> 
<polyline style="fill-rule:evenodd;"
points="116555,21551
116044,21551
116044,20961
116555,20961
116555,21551
" /> 
<polyline style="fill-rule:evenodd;"
points="116555,20469
116044,20469
116044,19917
116555,19917
116555,20469
" /> 
<polyline style="fill-rule:evenodd;"
points="129410,21546
128899,21546
128899,20956
129410,20956
129410,21546
" /> 
<polyline style="fill-rule:evenodd;"
points="129410,20464
128899,20464
128899,19912
129410,19912
129410,20464
" /> 
<polyline style="fill-rule:evenodd;"
points="50249,19628
50760,19628
50760,20218
50249,20218
50249,19628
" /> 
<polyline style="fill-rule:evenodd;"
points="50249,20710
50760,20710
50760,21262
50249,21262
50249,20710
" /> 
<polyline style="fill-rule:evenodd;"
points="86365,21551
85854,21551
85854,20961
86365,20961
86365,21551
" /> 
<polyline style="fill-rule:evenodd;"
points="86365,20469
85854,20469
85854,19917
86365,19917
86365,20469
" /> 
<polyline style="fill-rule:evenodd;"
points="95854,19623
96365,19623
96365,20213
95854,20213
95854,19623
" /> 
<polyline style="fill-rule:evenodd;"
points="95854,20705
96365,20705
96365,21257
95854,21257
95854,20705
" /> 
<polyline style="fill-rule:evenodd;"
points="65544,19629
66055,19629
66055,20220
65544,20220
65544,19629
" /> 
<polyline style="fill-rule:evenodd;"
points="65544,20712
66055,20712
66055,21263
65544,21263
65544,20712
" /> 
<polyline style="fill-rule:evenodd;"
points="110884,19633
111395,19633
111395,20223
110884,20223
110884,19633
" /> 
<polyline style="fill-rule:evenodd;"
points="110903,20715
111376,20715
111376,21267
110903,21267
110903,20715
" /> 
<polyline style="fill-rule:evenodd;"
points="125584,19629
126095,19629
126095,20220
125584,20220
125584,19629
" /> 
<polyline style="fill-rule:evenodd;"
points="125584,20712
126095,20712
126095,21263
125584,21263
125584,20712
" /> 
</g>
<g style="fill:#840000; fill-opacity:1.0; 
stroke:#840000; stroke-width:354.331; stroke-opacity:1; 
stroke-linecap:round; stroke-linejoin:round;">
</g>
<g style="fill:#840000; fill-opacity:0.0; 
stroke:#840000; stroke-width:354.331; stroke-opacity:1; 
stroke-linecap:round; stroke-linejoin:round;">
<path d="M24590 20600
L25987 20600
" />
<path d="M25987 20600
L25992 20605
" />
</g>
<g style="fill:#840000; fill-opacity:0.0; 
stroke:#840000; stroke-width:118.11; stroke-opacity:1; 
stroke-linecap:round; stroke-linejoin:round;">
<path d="M116300 21256
L116300 21444
" />
<path d="M116300 21444
L116280 21463
" />
<path d="M116280 21463
L115600 21463
" />
</g>
<g style="fill:#840000; fill-opacity:0.0; 
stroke:#840000; stroke-width:196.85; stroke-opacity:1; 
stroke-linecap:round; stroke-linejoin:round;">
<path d="M114500 21463
L115600 21463
" />
<path d="M115600 21463
L129736 21463
" />
<path d="M101900 21463
L111262 21463
" />
<path d="M114498 21465
L114500 21463
" />
<path d="M111263 21465
L114498 21465
" />
<path d="M111262 21463
L111263 21465
" />
</g>
<g style="fill:#840000; fill-opacity:0.0; 
stroke:#840000; stroke-width:354.331; stroke-opacity:1; 
stroke-linecap:round; stroke-linejoin:round;">
<path d="M23527 20600
L23527 20737
" />
<path d="M23527 20737
L23185 21080
" />
<path d="M23185 21080
L22428 21080
" />
<path d="M22428 21080
L22370 21138
" />
</g>
<g style="fill:#840000; fill-opacity:0.0; 
stroke:#840000; stroke-width:196.85; stroke-opacity:1; 
stroke-linecap:round; stroke-linejoin:round;">
<path d="M22715 21465
L38480 21465
" />
<path d="M38480 21465
L41250 21465
" />
<path d="M38480 20600
L38480 21269
" />
<path d="M38480 21269
L38480 21465
" />
<path d="M40330 21256
L40330 21320
" />
<path d="M40330 21320
L40475 21465
" />
<path d="M40475 21465
L41250 21465
" />
<path d="M41250 21465
L50057 21465
" />
<path d="M50962 21465
L53850 21465
" />
<path d="M53850 21465
L55080 21465
" />
<path d="M53850 20605
L53850 21274
" />
<path d="M53850 21274
L53850 21465
" />
<path d="M55705 21251
L55705 21375
" />
<path d="M55615 21465
L55080 21465
" />
<path d="M55705 21375
L55615 21465
" />
<path d="M55080 21465
L65347 21465
" />
<path d="M66252 21463
L69165 21463
" />
<path d="M69165 21463
L70500 21463
" />
<path d="M69167 20600
L69167 21269
" />
<path d="M69167 21269
L69165 21271
" />
<path d="M69165 21271
L69165 21463
" />
<path d="M70995 21256
L70995 21430
" />
<path d="M70995 21430
L70960 21465
" />
<path d="M70960 21465
L70501 21465
" />
<path d="M70501 21465
L70500 21463
" />
<path d="M70500 21463
L84290 21463
" />
<path d="M86110 21256
L86110 21450
" />
<path d="M86110 21450
L86095 21465
" />
<path d="M86095 21465
L85541 21465
" />
<path d="M85541 21465
L85540 21463
" />
<path d="M84290 21463
L85540 21463
" />
<path d="M85540 21463
L99475 21463
" />
<path d="M84290 20575
L84290 21244
" />
<path d="M84290 21244
L84290 21463
" />
<path d="M99475 21463
L101900 21463
" />
<path d="M99475 20600
L99475 21269
" />
<path d="M99475 21269
L99475 21463
" />
<path d="M101310 21256
L101310 21410
" />
<path d="M101310 21410
L101360 21460
" />
<path d="M101360 21460
L101896 21460
" />
<path d="M101896 21460
L101900 21463
" />
<path d="M114510 20595
L114510 21453
" />
<path d="M114510 21453
L114500 21463
" />
</g>
<g style="fill:#840000; fill-opacity:0.0; 
stroke:#840000; stroke-width:118.11; stroke-opacity:1; 
stroke-linecap:round; stroke-linejoin:round;">
<path d="M129155 21251
L129213 21310
" />
<path d="M129213 21310
L129768 21310
" />
<path d="M129768 21310
L129910 21168
" />
</g>
<g style="fill:#840000; fill-opacity:0.0; 
stroke:#840000; stroke-width:196.85; stroke-opacity:1; 
stroke-linecap:round; stroke-linejoin:round;">
<path d="M22370 21138
L22388 21138
" />
<path d="M22388 21138
L22715 21465
" />
<path d="M50962 21465
L50962 21464
" />
<path d="M50057 21465
L50057 21464
" />
<path d="M50057 21464
L50057 21465
" />
<path d="M50057 21465
L50962 21465
" />
<path d="M50962 21464
L50962 21465
" />
<path d="M65347 21465
L66251 21465
" />
<path d="M66251 21465
L66252 21463
" />
<path d="M65347 21465
L65347 21464
" />
<path d="M66252 21464
L66252 21463
" />
<path d="M129736 21463
L129910 21290
" />
<path d="M129910 21290
L129910 21168
" />
</g>
<g style="fill:#840000; fill-opacity:0.0; 
stroke:#840000; stroke-width:354.331; stroke-opacity:1; 
stroke-linecap:round; stroke-linejoin:round;">
<path d="M27055 20605
L28432 20605
" />
<path d="M30915 20610
L29500 20610
" />
<path d="M29500 20610
L29495 20605
" />
<path d="M31977 20610
L33247 20610
" />
<path d="M33247 20610
L33252 20605
" />
</g>
<g style="fill:#840000; fill-opacity:0.0; 
stroke:#840000; stroke-width:196.85; stroke-opacity:1; 
stroke-linecap:round; stroke-linejoin:round;">
<path d="M34315 20605
L34440 20480
" />
<path d="M34440 20480
L35797 20480
" />
<path d="M35797 20480
L35907 20590
" />
<path d="M36990 20405
L36990 20570
" />
<path d="M36990 20570
L36970 20590
" />
<path d="M36970 20590
L36970 20395
" />
<path d="M36970 20395
L37167 20198
" />
<path d="M37167 20198
L37436 20198
" />
<path d="M37436 20198
L37459 20221
" />
<path d="M39542 20600
L39662 20720
" />
<path d="M39662 20720
L40980 20720
" />
<path d="M40980 20720
L41100 20600
" />
</g>
<g style="fill:#840000; fill-opacity:0.0; 
stroke:#840000; stroke-width:354.331; stroke-opacity:1; 
stroke-linecap:round; stroke-linejoin:round;">
<path d="M42162 20600
L43610 20600
" />
<path d="M43610 20600
L43615 20605
" />
<path d="M44677 20605
L46105 20605
" />
<path d="M48665 20600
L47172 20600
" />
<path d="M47172 20600
L47167 20605
" />
</g>
<g style="fill:#840000; fill-opacity:0.0; 
stroke:#840000; stroke-width:196.85; stroke-opacity:1; 
stroke-linecap:round; stroke-linejoin:round;">
<path d="M49727 20600
L49862 20465
" />
<path d="M49862 20465
L51175 20465
" />
<path d="M51175 20465
L51290 20580
" />
<path d="M52844 20221
L52819 20196
" />
<path d="M52819 20196
L52499 20196
" />
<path d="M52499 20196
L52345 20350
" />
<path d="M52345 20572
L52352 20580
" />
<path d="M52345 20350
L52345 20572
" />
</g>
<g style="fill:#840000; fill-opacity:0.0; 
stroke:#840000; stroke-width:354.331; stroke-opacity:1; 
stroke-linecap:round; stroke-linejoin:round;">
<path d="M57557 20605
L58945 20605
" />
<path d="M58945 20605
L58950 20600
" />
<path d="M60012 20600
L61455 20600
" />
<path d="M62517 20600
L63957 20600
" />
<path d="M63957 20600
L63962 20605
" />
</g>
<g style="fill:#840000; fill-opacity:0.0; 
stroke:#840000; stroke-width:196.85; stroke-opacity:1; 
stroke-linecap:round; stroke-linejoin:round;">
<path d="M65025 20605
L65025 20570
" />
<path d="M65025 20570
L65125 20470
" />
<path d="M65125 20470
L66460 20470
" />
<path d="M66460 20470
L66595 20605
" />
<path d="M68154 20221
L68118 20185
" />
<path d="M68118 20185
L67795 20185
" />
<path d="M67795 20185
L67657 20322
" />
<path d="M67657 20322
L67657 20605
" />
<path d="M70230 20600
L70345 20715
" />
<path d="M70345 20715
L71649 20715
" />
<path d="M71649 20715
L71764 20600
" />
</g>
<g style="fill:#840000; fill-opacity:0.0; 
stroke:#840000; stroke-width:354.331; stroke-opacity:1; 
stroke-linecap:round; stroke-linejoin:round;">
<path d="M72827 20600
L74152 20600
" />
<path d="M74152 20600
L74167 20585
" />
<path d="M75230 20585
L76652 20585
" />
<path d="M76652 20585
L76677 20610
" />
<path d="M77740 20610
L79087 20610
" />
<path d="M79087 20610
L79097 20600
" />
</g>
<g style="fill:#840000; fill-opacity:0.0; 
stroke:#840000; stroke-width:196.85; stroke-opacity:1; 
stroke-linecap:round; stroke-linejoin:round;">
<path d="M81725 20605
L81570 20450
" />
<path d="M81570 20450
L80310 20450
" />
<path d="M80310 20450
L80160 20600
" />
<path d="M83279 20231
L83204 20156
" />
<path d="M83204 20156
L82894 20156
" />
<path d="M82894 20156
L82787 20262
" />
<path d="M82787 20262
L82787 20605
" />
<path d="M85352 20575
L85477 20700
" />
<path d="M85477 20700
L86775 20700
" />
<path d="M86775 20700
L86880 20595
" />
</g>
<g style="fill:#840000; fill-opacity:0.0; 
stroke:#840000; stroke-width:354.331; stroke-opacity:1; 
stroke-linecap:round; stroke-linejoin:round;">
<path d="M87942 20595
L89220 20595
" />
<path d="M89220 20595
L89235 20580
" />
<path d="M90297 20580
L91692 20580
" />
<path d="M91692 20580
L91717 20605
" />
<path d="M92780 20605
L94280 20605
" />
<path d="M94280 20605
L94285 20610
" />
</g>
<g style="fill:#840000; fill-opacity:0.0; 
stroke:#840000; stroke-width:196.85; stroke-opacity:1; 
stroke-linecap:round; stroke-linejoin:round;">
<path d="M95347 20610
L95370 20587
" />
<path d="M95370 20587
L95370 20477
" />
<path d="M95370 20477
L96787 20477
" />
<path d="M96787 20477
L96900 20590
" />
<path d="M98459 20241
L98360 20142
" />
<path d="M98360 20142
L98052 20142
" />
<path d="M98052 20142
L97962 20231
" />
<path d="M97962 20231
L97962 20590
" />
<path d="M100537 20600
L100650 20713
" />
<path d="M100650 20713
L101952 20713
" />
<path d="M101952 20713
L102085 20580
" />
</g>
<g style="fill:#840000; fill-opacity:0.0; 
stroke:#840000; stroke-width:354.331; stroke-opacity:1; 
stroke-linecap:round; stroke-linejoin:round;">
<path d="M103147 20580
L104465 20580
" />
<path d="M104465 20580
L104485 20600
" />
<path d="M105547 20600
L106922 20600
" />
<path d="M106922 20600
L106927 20605
" />
<path d="M107990 20605
L109300 20605
" />
<path d="M109300 20605
L109305 20600
" />
</g>
<g style="fill:#840000; fill-opacity:0.0; 
stroke:#840000; stroke-width:196.85; stroke-opacity:1; 
stroke-linecap:round; stroke-linejoin:round;">
<path d="M110367 20600
L110487 20480
" />
<path d="M110487 20480
L111880 20480
" />
<path d="M111880 20480
L111940 20540
" />
<path d="M111940 20540
L111940 20595
" />
<path d="M113002 20595
L113002 20167
" />
<path d="M113002 20167
L113037 20133
" />
<path d="M113037 20133
L113406 20133
" />
<path d="M113406 20133
L113494 20221
" />
</g>
<g style="fill:#840000; fill-opacity:0.0; 
stroke:#840000; stroke-width:118.11; stroke-opacity:1; 
stroke-linecap:round; stroke-linejoin:round;">
<path d="M115546 20652
L115614 20720
" />
<path d="M115614 20720
L116932 20720
" />
<path d="M116932 20720
L117052 20600
" />
</g>
<g style="fill:#840000; fill-opacity:0.0; 
stroke:#840000; stroke-width:354.331; stroke-opacity:1; 
stroke-linecap:round; stroke-linejoin:round;">
<path d="M118115 20600
L119375 20600
" />
<path d="M119375 20600
L119380 20595
" />
<path d="M120442 20595
L121755 20595
" />
<path d="M121755 20595
L121765 20605
" />
<path d="M122827 20605
L124037 20605
" />
<path d="M124037 20605
L124042 20600
" />
</g>
<g style="fill:#840000; fill-opacity:0.0; 
stroke:#840000; stroke-width:196.85; stroke-opacity:1; 
stroke-linecap:round; stroke-linejoin:round;">
<path d="M126610 20560
L126510 20460
" />
<path d="M126510 20460
L125245 20460
" />
<path d="M125245 20460
L125105 20600
" />
<path d="M128134 20216
L128082 20164
" />
<path d="M128082 20164
L127821 20164
" />
<path d="M127821 20164
L127672 20312
" />
<path d="M127672 20312
L127672 20560
" />
<path d="M125235 19715
L129677 19715
" />
<path d="M129677 19715
L129910 19948
" />
<path d="M129910 19948
L129910 20086
" />
</g>
<g style="fill:#840000; fill-opacity:0.0; 
stroke:#840000; stroke-width:118.11; stroke-opacity:1; 
stroke-linecap:round; stroke-linejoin:round;">
<path d="M111140 19928
L111140 19756
" />
<path d="M111140 19756
L111181 19715
" />
<path d="M111181 19715
L111666 19715
" />
</g>
<g style="fill:#840000; fill-opacity:0.0; 
stroke:#840000; stroke-width:196.85; stroke-opacity:1; 
stroke-linecap:round; stroke-linejoin:round;">
<path d="M96726 19715
L111666 19715
" />
<path d="M111666 19715
L125235 19715
" />
</g>
<g style="fill:#840000; fill-opacity:0.0; 
stroke:#840000; stroke-width:118.11; stroke-opacity:1; 
stroke-linecap:round; stroke-linejoin:round;">
<path d="M96110 19918
L96110 19774
" />
<path d="M96110 19774
L96169 19715
" />
<path d="M96169 19715
L96726 19715
" />
</g>
<g style="fill:#840000; fill-opacity:0.0; 
stroke:#840000; stroke-width:196.85; stroke-opacity:1; 
stroke-linecap:round; stroke-linejoin:round;">
<path d="M66400 19715
L96726 19715
" />
<path d="M35080 19928
L35080 19720
" />
<path d="M35080 19720
L35085 19715
" />
<path d="M35085 19715
L34515 19715
" />
<path d="M22730 19715
L34515 19715
" />
<path d="M34515 19715
L51010 19715
" />
<path d="M50505 19923
L50505 19815
" />
<path d="M50505 19815
L50605 19715
" />
<path d="M50605 19715
L51010 19715
" />
<path d="M51010 19715
L64800 19715
" />
<path d="M65800 19925
L65800 19840
" />
<path d="M65815 19825
L65705 19715
" />
<path d="M65705 19715
L64800 19715
" />
<path d="M65800 19840
L65815 19825
" />
<path d="M64800 19715
L66400 19715
" />
<path d="M65800 19925
L65800 19735
" />
<path d="M65800 19735
L65820 19715
" />
<path d="M65820 19715
L66400 19715
" />
<path d="M125840 19925
L125840 19730
" />
<path d="M125840 19730
L125820 19710
" />
<path d="M125820 19710
L125240 19710
" />
<path d="M125240 19710
L125235 19715
" />
<path d="M22370 20056
L22388 20056
" />
<path d="M22388 20056
L22730 19715
" />
</g>
<g style="fill:#840000; fill-opacity:0.0; 
stroke:#840000; stroke-width:118.11; stroke-opacity:1; 
stroke-linecap:round; stroke-linejoin:round;">
<path d="M37971 20221
L37971 20175
" />
<path d="M37971 20175
L38170 19976
" />
<path d="M38170 19976
L40112 19976
" />
<path d="M40112 19976
L40330 20193
" />
<path d="M35080 20991
L35296 21208
" />
<path d="M35296 21208
L37504 21208
" />
<path d="M37504 21208
L37715 20997
" />
<path d="M37715 20997
L37715 20969
" />
<path d="M53356 20221
L53356 20146
" />
<path d="M53356 20146
L53527 19975
" />
<path d="M53527 19975
L55491 19975
" />
<path d="M55491 19975
L55705 20188
" />
<path d="M50505 20986
L50505 21035
" />
<path d="M50505 21035
L50678 21208
" />
<path d="M50678 21208
L52881 21208
" />
<path d="M52881 21208
L53100 20990
" />
<path d="M53100 20990
L53100 20969
" />
<path d="M50505 20986
L50505 21135
" />
<path d="M50505 21135
L50579 21209
" />
<path d="M98971 20241
L98971 20176
" />
<path d="M98971 20176
L99171 19976
" />
<path d="M99171 19976
L101092 19976
" />
<path d="M101092 19976
L101310 20193
" />
<path d="M96110 20981
L96127 20981
" />
<path d="M96127 20981
L96342 21196
" />
<path d="M96342 21196
L98528 21196
" />
<path d="M98528 21196
L98715 21009
" />
<path d="M98715 21009
L98715 20989
" />
<path d="M68666 20221
L68666 20146
" />
<path d="M68666 20146
L68836 19976
" />
<path d="M68836 19976
L70777 19976
" />
<path d="M70777 19976
L70995 20193
" />
<path d="M65800 20987
L65800 21030
" />
<path d="M65800 21030
L65979 21209
" />
<path d="M65979 21209
L66145 21209
" />
<path d="M66145 21209
L66146 21208
" />
<path d="M66146 21208
L68235 21208
" />
<path d="M68235 21208
L68410 21034
" />
<path d="M68410 21034
L68410 20969
" />
<path d="M114006 20221
L114006 20164
" />
<path d="M114006 20164
L114194 19976
" />
<path d="M114194 19976
L116082 19976
" />
<path d="M116082 19976
L116300 20193
" />
<path d="M111140 20991
L111151 20991
" />
<path d="M111151 20991
L111370 21210
" />
<path d="M111370 21210
L113598 21210
" />
<path d="M113598 21210
L113750 21058
" />
<path d="M113750 21058
L113750 20969
" />
</g>
<g style="fill:#840000; fill-opacity:0.0; 
stroke:#840000; stroke-width:196.85; stroke-opacity:1; 
stroke-linecap:round; stroke-linejoin:round;">
<path d="M128646 20216
L128742 20120
" />
<path d="M128742 20120
L129086 20120
" />
<path d="M129086 20120
L129155 20188
" />
</g>
<g style="fill:#840000; fill-opacity:0.0; 
stroke:#840000; stroke-width:118.11; stroke-opacity:1; 
stroke-linecap:round; stroke-linejoin:round;">
<path d="M125840 20987
L126056 21204
" />
<path d="M126056 21204
L128198 21204
" />
<path d="M128198 21204
L128390 21012
" />
<path d="M128390 21012
L128390 20964
" />
<path d="M86110 20193
L85894 19978
" />
<path d="M85894 19978
L83976 19978
" />
<path d="M83976 19978
L83791 20163
" />
<path d="M83791 20163
L83791 20231
" />
<path d="M80935 20981
L81151 21198
" />
<path d="M81151 21198
L83342 21198
" />
<path d="M83342 21198
L83535 21005
" />
<path d="M83535 21005
L83535 20979
" />
</g>
<g style="fill:#840000; fill-opacity:1.0; 
stroke:#840000; stroke-width:118.11; stroke-opacity:1; 
stroke-linecap:round; stroke-linejoin:round;">
<polyline style="fill-rule:evenodd;"
points="129950,20045
129958,20045
129958,20127
129950,20127
129950,20516
129989,20554
129989,20668
129674,20668
129578,20686
129525,20720
129513,20712
129503,20710
129506,20710
129595,20653
129644,20581
129804,20581
129869,20516
129869,20127
129861,20127
129861,20045
129869,20045
129869,20037
129950,20037
129950,20045
" /> 
<polyline style="fill-rule:evenodd;"
points="23234,19881
23145,19938
23086,20024
23066,20127
23066,20582
23004,20643
22630,20643
22606,20638
22278,20638
22278,20536
22329,20486
22329,20097
22410,20097
22410,20486
22475,20551
22657,20551
22752,20511
22825,20439
22865,20343
22865,20162
22800,20097
22410,20097
22329,20097
22321,20097
22321,20015
22329,20015
22329,20007
22410,20007
22410,20015
22800,20015
22865,19950
22865,19878
23248,19878
23234,19881
" /> 
<polyline style="fill-rule:evenodd;"
points="111180,19887
111188,19887
111188,19969
111180,19969
111180,19977
111099,19977
111099,19969
111091,19969
111091,19887
111099,19887
111099,19879
111180,19879
111180,19887
" /> 
<polyline style="fill-rule:evenodd;"
points="35120,19887
35128,19887
35128,19969
35120,19969
35120,19977
35039,19977
35039,19969
35031,19969
35031,19887
35039,19887
35039,19879
35120,19879
35120,19887
" /> 
<polyline style="fill-rule:evenodd;"
points="125880,19884
125888,19884
125888,19965
125880,19965
125880,19973
125799,19973
125799,19965
125791,19965
125791,19884
125799,19884
125799,19878
125880,19878
125880,19884
" /> 
<polyline style="fill-rule:evenodd;"
points="65840,19884
65848,19884
65848,19965
65840,19965
65840,19973
65759,19973
65759,19965
65751,19965
65751,19884
65759,19884
65759,19878
65840,19878
65840,19884
" /> 
<polyline style="fill-rule:evenodd;"
points="50545,19882
50553,19882
50553,19964
50545,19964
50545,19972
50464,19972
50464,19964
50456,19964
50456,19882
50464,19882
50464,19878
50545,19878
50545,19882
" /> 
<polyline style="fill-rule:evenodd;"
points="80983,19959
80975,19959
80975,19967
80894,19967
80894,19959
80886,19959
80886,19878
80983,19878
80983,19959
" /> 
<polyline style="fill-rule:evenodd;"
points="96158,19959
96150,19959
96150,19967
96069,19967
96069,19959
96061,19959
96061,19878
96158,19878
96158,19959
" /> 
</g>
<g style="fill:#FFFFFF; fill-opacity:1.0; 
stroke:#FFFFFF; stroke-width:118.11; stroke-opacity:1; 
stroke-linecap:round; stroke-linejoin:round;">
</g>
<g style="fill:#000000; fill-opacity:1.0; 
stroke:#000000; stroke-width:118.11; stroke-opacity:1; 
stroke-linecap:round; stroke-linejoin:round;">
</g> 
</svg>
